<?xml version="1.0" encoding="UTF-8" standalone="no"?>
<!DOCTYPE svg PUBLIC "-//W3C//DTD SVG 1.1//EN"
 "http://www.w3.org/Graphics/SVG/1.1/DTD/svg11.dtd">
<!-- Generated by graphviz version 2.43.0 (0)
 -->
<!-- Title: ldoe_lr0 Pages: 1 -->
<svg width="2012pt" height="963pt"
 viewBox="0.00 0.00 2011.85 962.74" xmlns="http://www.w3.org/2000/svg" xmlns:xlink="http://www.w3.org/1999/xlink">
<g id="graph0" class="graph" transform="scale(1 1) rotate(0) translate(4 958.74)">
<title>ldoe_lr0</title>
<polygon fill="white" stroke="transparent" points="-4,4 -4,-958.74 2007.85,-958.74 2007.85,4 -4,4"/>
<!-- G05_q0 -->
<g id="node1" class="node">
<title>G05_q0</title>
<ellipse fill="none" stroke="black" cx="103.24" cy="-914.87" rx="86.03" ry="26.74"/>
<text text-anchor="middle" x="103.24" y="-918.67" font-family="Times,serif" font-size="14.00">0</text>
<text text-anchor="middle" x="103.24" y="-903.67" font-family="Times,serif" font-size="14.00">G·0·5: ● S·0·5.</text>
</g>
<!-- G05_S05 -->
<g id="node2" class="node">
<title>G05_S05</title>
<ellipse fill="none" stroke="black" cx="1476.22" cy="-729.87" rx="89.19" ry="26.76"/>
<ellipse fill="none" stroke="black" cx="1476.22" cy="-729.87" rx="93.19" ry="30.74"/>
<text text-anchor="middle" x="1476.22" y="-733.67" font-family="Times,serif" font-size="14.00">1</text>
<text text-anchor="middle" x="1476.22" y="-718.67" font-family="Times,serif" font-size="14.00">G·0·5: S·0·5 ● .</text>
</g>
<!-- G05_q0&#45;&gt;G05_S05 -->
<g id="edge1" class="edge">
<title>G05_q0&#45;&gt;G05_S05</title>
<path fill="none" stroke="black" stroke-dasharray="1,5" d="M182.63,-904.34C240.22,-897.51 320.43,-889.87 391.19,-889.87 391.19,-889.87 391.19,-889.87 1092.13,-889.87 1206.8,-889.87 1222.66,-830.55 1328.68,-786.87 1353.3,-776.73 1380.43,-766.04 1404.59,-756.69"/>
<polygon fill="black" stroke="black" points="1405.97,-759.91 1414.04,-753.04 1403.45,-753.38 1405.97,-759.91"/>
</g>
<!-- S05_q0 -->
<g id="node3" class="node">
<title>S05_q0</title>
<ellipse fill="none" stroke="black" cx="103.24" cy="-825.87" rx="84.71" ry="26.74"/>
<text text-anchor="middle" x="103.24" y="-829.67" font-family="Times,serif" font-size="14.00">2</text>
<text text-anchor="middle" x="103.24" y="-814.67" font-family="Times,serif" font-size="14.00">S·0·5: ● A·0·5.</text>
</g>
<!-- G05_q0&#45;&gt;S05_q0 -->
<g id="edge18" class="edge">
<title>G05_q0&#45;&gt;S05_q0</title>
<path fill="none" stroke="red" d="M103.24,-887.85C103.24,-880.1 103.24,-871.5 103.24,-863.25"/>
<polygon fill="red" stroke="red" points="106.74,-863.06 103.24,-853.06 99.74,-863.06 106.74,-863.06"/>
<text text-anchor="middle" x="92.74" y="-866.67" font-family="Times,serif" font-size="14.00">Push 1</text>
</g>
<!-- S05_A05 -->
<g id="node4" class="node">
<title>S05_A05</title>
<ellipse fill="none" stroke="black" cx="1476.22" cy="-826.87" rx="84.71" ry="26.76"/>
<ellipse fill="none" stroke="black" cx="1476.22" cy="-826.87" rx="88.71" ry="30.74"/>
<text text-anchor="middle" x="1476.22" y="-830.67" font-family="Times,serif" font-size="14.00">3</text>
<text text-anchor="middle" x="1476.22" y="-815.67" font-family="Times,serif" font-size="14.00">S·0·5: A·0·5 ●.</text>
</g>
<!-- S05_q0&#45;&gt;S05_A05 -->
<g id="edge2" class="edge">
<title>S05_q0&#45;&gt;S05_A05</title>
<path fill="none" stroke="black" stroke-dasharray="1,5" d="M188.36,-826.32C245.56,-826.58 322.94,-826.87 391.19,-826.87 391.19,-826.87 391.19,-826.87 1092.13,-826.87 1189.04,-826.87 1299.74,-826.87 1377.13,-826.87"/>
<polygon fill="black" stroke="black" points="1377.35,-830.37 1387.35,-826.87 1377.35,-823.37 1377.35,-830.37"/>
</g>
<!-- A05_q0 -->
<g id="node5" class="node">
<title>A05_q0</title>
<ellipse fill="none" stroke="black" cx="103.24" cy="-736.87" rx="103.48" ry="26.74"/>
<text text-anchor="middle" x="103.24" y="-740.67" font-family="Times,serif" font-size="14.00">4</text>
<text text-anchor="middle" x="103.24" y="-725.67" font-family="Times,serif" font-size="14.00">A·0·5: ● &#39;a&#39;, B·1·5.</text>
</g>
<!-- S05_q0&#45;&gt;A05_q0 -->
<g id="edge20" class="edge">
<title>S05_q0&#45;&gt;A05_q0</title>
<path fill="none" stroke="red" d="M103.24,-798.85C103.24,-791.1 103.24,-782.5 103.24,-774.25"/>
<polygon fill="red" stroke="red" points="106.74,-774.06 103.24,-764.06 99.74,-774.06 106.74,-774.06"/>
<text text-anchor="middle" x="92.74" y="-777.67" font-family="Times,serif" font-size="14.00">Push 3</text>
</g>
<!-- S05_A05&#45;&gt;G05_S05 -->
<g id="edge19" class="edge">
<title>S05_A05&#45;&gt;G05_S05</title>
<path fill="none" stroke="red" d="M1476.22,-795.87C1476.22,-787.91 1476.22,-779.22 1476.22,-770.83"/>
<polygon fill="red" stroke="red" points="1479.72,-770.83 1476.22,-760.83 1472.72,-770.83 1479.72,-770.83"/>
<text text-anchor="middle" x="1465.72" y="-774.67" font-family="Times,serif" font-size="14.00">Pop 1</text>
</g>
<!-- A05_lita -->
<g id="node6" class="node">
<title>A05_lita</title>
<ellipse fill="none" stroke="black" cx="392.19" cy="-771.87" rx="103.48" ry="26.74"/>
<text text-anchor="middle" x="392.19" y="-775.67" font-family="Times,serif" font-size="14.00">5</text>
<text text-anchor="middle" x="392.19" y="-760.67" font-family="Times,serif" font-size="14.00">A·0·5: &#39;a&#39; ●, B·1·5.</text>
</g>
<!-- A05_q0&#45;&gt;A05_lita -->
<g id="edge3" class="edge">
<title>A05_q0&#45;&gt;A05_lita</title>
<path fill="none" stroke="transparent" stroke-dasharray="1,5" d="M197.01,-748.19C226.13,-751.74 258.46,-755.68 288.25,-759.31"/>
<polygon fill="transparent" stroke="transparent" points="287.9,-762.8 298.25,-760.53 288.75,-755.85 287.9,-762.8"/>
<text text-anchor="middle" x="228.98" y="-755.67" font-family="Times,serif" font-size="14.00" fill="#fffffe">a</text>
</g>
<!-- A05_q0&#45;&gt;A05_lita -->
<g id="edge22" class="edge">
<title>A05_q0&#45;&gt;A05_lita</title>
<path fill="none" stroke="red" d="M205.59,-733.26C211.98,-733.1 218.31,-732.97 224.48,-732.87 228.47,-732.8 229.5,-732.39 233.48,-732.87 260.17,-736.12 288.86,-742.36 314.35,-748.91"/>
<polygon fill="red" stroke="red" points="313.76,-752.37 324.32,-751.53 315.54,-745.6 313.76,-752.37"/>
<text text-anchor="middle" x="228.98" y="-736.67" font-family="Times,serif" font-size="14.00">a</text>
</g>
<!-- A05_B15 -->
<g id="node7" class="node">
<title>A05_B15</title>
<ellipse fill="none" stroke="black" cx="1476.22" cy="-923.87" rx="103.47" ry="26.76"/>
<ellipse fill="none" stroke="black" cx="1476.22" cy="-923.87" rx="107.48" ry="30.74"/>
<text text-anchor="middle" x="1476.22" y="-927.67" font-family="Times,serif" font-size="14.00">6</text>
<text text-anchor="middle" x="1476.22" y="-912.67" font-family="Times,serif" font-size="14.00">A·0·5: &#39;a&#39;, B·1·5 ●.</text>
</g>
<!-- A05_lita&#45;&gt;A05_B15 -->
<g id="edge4" class="edge">
<title>A05_lita&#45;&gt;A05_B15</title>
<path fill="none" stroke="black" stroke-dasharray="1,5" d="M494.43,-775.85C602.58,-780.98 778.81,-791.85 929.59,-812.87 1090.91,-835.35 1276.23,-876.33 1384.09,-901.71"/>
<polygon fill="black" stroke="black" points="1383.42,-905.15 1393.96,-904.04 1385.03,-898.33 1383.42,-905.15"/>
</g>
<!-- B15_q0 -->
<g id="node8" class="node">
<title>B15_q0</title>
<ellipse fill="none" stroke="black" cx="392.19" cy="-682.87" rx="140.93" ry="26.74"/>
<text text-anchor="middle" x="392.19" y="-686.67" font-family="Times,serif" font-size="14.00">7</text>
<text text-anchor="middle" x="392.19" y="-671.67" font-family="Times,serif" font-size="14.00">B·1·5: ● LDOE·1·2, A·2·5.</text>
</g>
<!-- A05_lita&#45;&gt;B15_q0 -->
<g id="edge23" class="edge">
<title>A05_lita&#45;&gt;B15_q0</title>
<path fill="none" stroke="red" d="M392.19,-744.85C392.19,-737.1 392.19,-728.5 392.19,-720.25"/>
<polygon fill="red" stroke="red" points="395.69,-720.06 392.19,-710.06 388.69,-720.06 395.69,-720.06"/>
<text text-anchor="middle" x="381.69" y="-723.67" font-family="Times,serif" font-size="14.00">Push 6</text>
</g>
<!-- A05_B15&#45;&gt;S05_A05 -->
<g id="edge21" class="edge">
<title>A05_B15&#45;&gt;S05_A05</title>
<path fill="none" stroke="red" d="M1476.22,-892.87C1476.22,-884.91 1476.22,-876.22 1476.22,-867.83"/>
<polygon fill="red" stroke="red" points="1479.72,-867.83 1476.22,-857.83 1472.72,-867.83 1479.72,-867.83"/>
<text text-anchor="middle" x="1465.72" y="-871.67" font-family="Times,serif" font-size="14.00">Pop 3</text>
</g>
<!-- B15_LDOE12 -->
<g id="node9" class="node">
<title>B15_LDOE12</title>
<ellipse fill="none" stroke="black" cx="1091.13" cy="-714.87" rx="143.59" ry="26.74"/>
<text text-anchor="middle" x="1091.13" y="-718.67" font-family="Times,serif" font-size="14.00">8</text>
<text text-anchor="middle" x="1091.13" y="-703.67" font-family="Times,serif" font-size="14.00">B·1·5: LDOE·1·2 ● , A·2·5.</text>
</g>
<!-- B15_q0&#45;&gt;B15_LDOE12 -->
<g id="edge5" class="edge">
<title>B15_q0&#45;&gt;B15_LDOE12</title>
<path fill="none" stroke="black" stroke-dasharray="1,5" d="M529.22,-689.12C647.7,-694.56 819.17,-702.43 941.29,-708.04"/>
<polygon fill="black" stroke="black" points="941.32,-711.54 951.47,-708.5 941.64,-704.55 941.32,-711.54"/>
</g>
<!-- LDOE12_q0 -->
<g id="node11" class="node">
<title>LDOE12_q0</title>
<ellipse fill="none" stroke="black" cx="392.19" cy="-339.87" rx="111.03" ry="26.74"/>
<text text-anchor="middle" x="392.19" y="-343.67" font-family="Times,serif" font-size="14.00">10</text>
<text text-anchor="middle" x="392.19" y="-328.67" font-family="Times,serif" font-size="14.00">LDOE·1·2: ● M·1·2.</text>
</g>
<!-- B15_q0&#45;&gt;LDOE12_q0 -->
<g id="edge25" class="edge">
<title>B15_q0&#45;&gt;LDOE12_q0</title>
<path fill="none" stroke="red" d="M392.19,-655.61C392.19,-594.43 392.19,-446.19 392.19,-376.82"/>
<polygon fill="red" stroke="red" points="395.69,-376.78 392.19,-366.78 388.69,-376.78 395.69,-376.78"/>
<text text-anchor="middle" x="381.69" y="-507.67" font-family="Times,serif" font-size="14.00">Push 8</text>
</g>
<!-- B15_A25 -->
<g id="node10" class="node">
<title>B15_A25</title>
<ellipse fill="none" stroke="black" cx="1856.31" cy="-670.87" rx="143.58" ry="26.76"/>
<ellipse fill="none" stroke="black" cx="1856.31" cy="-670.87" rx="147.59" ry="30.74"/>
<text text-anchor="middle" x="1856.31" y="-674.67" font-family="Times,serif" font-size="14.00">9</text>
<text text-anchor="middle" x="1856.31" y="-659.67" font-family="Times,serif" font-size="14.00">B·1·5: LDOE·1·2, A·2·5 ● .</text>
</g>
<!-- B15_LDOE12&#45;&gt;B15_A25 -->
<g id="edge6" class="edge">
<title>B15_LDOE12&#45;&gt;B15_A25</title>
<path fill="none" stroke="black" stroke-dasharray="1,5" d="M1212.63,-700.51C1249.8,-696.51 1290.88,-692.55 1328.68,-689.87 1453,-681.07 1594.14,-676.25 1698.99,-673.68"/>
<polygon fill="black" stroke="black" points="1699.11,-677.17 1709.02,-673.43 1698.94,-670.18 1699.11,-677.17"/>
</g>
<!-- A25_q0 -->
<g id="node13" class="node">
<title>A25_q0</title>
<ellipse fill="none" stroke="black" cx="1091.13" cy="-625.87" rx="103.48" ry="26.74"/>
<text text-anchor="middle" x="1091.13" y="-629.67" font-family="Times,serif" font-size="14.00">12</text>
<text text-anchor="middle" x="1091.13" y="-614.67" font-family="Times,serif" font-size="14.00">A·2·5: ● &#39;a&#39;, B·3·5.</text>
</g>
<!-- B15_LDOE12&#45;&gt;A25_q0 -->
<g id="edge27" class="edge">
<title>B15_LDOE12&#45;&gt;A25_q0</title>
<path fill="none" stroke="red" d="M1091.13,-687.85C1091.13,-680.1 1091.13,-671.5 1091.13,-663.25"/>
<polygon fill="red" stroke="red" points="1094.63,-663.06 1091.13,-653.06 1087.63,-663.06 1094.63,-663.06"/>
<text text-anchor="middle" x="1080.63" y="-666.67" font-family="Times,serif" font-size="14.00">Push 9</text>
</g>
<!-- B15_A25&#45;&gt;A05_B15 -->
<g id="edge24" class="edge">
<title>B15_A25&#45;&gt;A05_B15</title>
<path fill="none" stroke="red" d="M1826.01,-701.37C1784.35,-743.33 1704.1,-819.07 1623.76,-866.87 1603.74,-878.79 1580.77,-889.09 1559.05,-897.54"/>
<polygon fill="red" stroke="red" points="1557.61,-894.34 1549.51,-901.17 1560.1,-900.89 1557.61,-894.34"/>
<text text-anchor="middle" x="1666.26" y="-857.67" font-family="Times,serif" font-size="14.00">Pop 6</text>
</g>
<!-- LDOE12_M12 -->
<g id="node12" class="node">
<title>LDOE12_M12</title>
<ellipse fill="none" stroke="black" cx="744.75" cy="-138.87" rx="113.69" ry="26.76"/>
<ellipse fill="none" stroke="black" cx="744.75" cy="-138.87" rx="117.69" ry="30.74"/>
<text text-anchor="middle" x="744.75" y="-142.67" font-family="Times,serif" font-size="14.00">11</text>
<text text-anchor="middle" x="744.75" y="-127.67" font-family="Times,serif" font-size="14.00">LDOE·1·2: M·1·2 ● .</text>
</g>
<!-- LDOE12_q0&#45;&gt;LDOE12_M12 -->
<g id="edge7" class="edge">
<title>LDOE12_q0&#45;&gt;LDOE12_M12</title>
<path fill="none" stroke="black" stroke-dasharray="1,5" d="M431.78,-314.47C477.56,-284.72 556.55,-234.58 626.9,-195.87 642.84,-187.1 660.32,-178.21 676.79,-170.13"/>
<polygon fill="black" stroke="black" points="678.36,-173.26 685.82,-165.74 675.3,-166.97 678.36,-173.26"/>
</g>
<!-- M12_q0 -->
<g id="node16" class="node">
<title>M12_q0</title>
<ellipse fill="none" stroke="black" cx="744.75" cy="-339.87" rx="113.69" ry="37.45"/>
<text text-anchor="middle" x="744.75" y="-351.17" font-family="Times,serif" font-size="14.00">15</text>
<text text-anchor="middle" x="744.75" y="-336.17" font-family="Times,serif" font-size="14.00">M·1·2: &#160;● &#39;m&#39;.</text>
<text text-anchor="middle" x="744.75" y="-321.17" font-family="Times,serif" font-size="14.00">M·1·2: &#160;● LDOE·1·2.</text>
</g>
<!-- LDOE12_q0&#45;&gt;M12_q0 -->
<g id="edge29" class="edge">
<title>LDOE12_q0&#45;&gt;M12_q0</title>
<path fill="none" stroke="red" d="M487.11,-325.91C524.93,-321.89 568.97,-319.22 608.9,-321.87 615.95,-322.34 623.19,-322.94 630.49,-323.65"/>
<polygon fill="red" stroke="red" points="630.15,-327.13 640.45,-324.66 630.86,-320.17 630.15,-327.13"/>
<text text-anchor="middle" x="579.9" y="-325.67" font-family="Times,serif" font-size="14.00">Push 11</text>
</g>
<!-- LDOE12_M12&#45;&gt;B15_LDOE12 -->
<g id="edge26" class="edge">
<title>LDOE12_M12&#45;&gt;B15_LDOE12</title>
<path fill="none" stroke="red" d="M820.63,-162.56C836.57,-170.79 851.82,-181.66 862.59,-195.87 989.78,-363.64 812.35,-500.53 947.59,-661.87 957.68,-673.9 970.77,-683.21 984.93,-690.4"/>
<polygon fill="red" stroke="red" points="983.83,-693.75 994.37,-694.83 986.8,-687.41 983.83,-693.75"/>
<text text-anchor="middle" x="905.09" y="-637.67" font-family="Times,serif" font-size="14.00">Pop 8</text>
</g>
<!-- M12_LDOE12 -->
<g id="node18" class="node">
<title>M12_LDOE12</title>
<ellipse fill="none" stroke="black" cx="1091.13" cy="-100.87" rx="113.69" ry="26.76"/>
<ellipse fill="none" stroke="black" cx="1091.13" cy="-100.87" rx="117.69" ry="30.74"/>
<text text-anchor="middle" x="1091.13" y="-104.67" font-family="Times,serif" font-size="14.00">17</text>
<text text-anchor="middle" x="1091.13" y="-89.67" font-family="Times,serif" font-size="14.00">M·1·2: LDOE·1·2 ● .</text>
</g>
<!-- LDOE12_M12&#45;&gt;M12_LDOE12 -->
<g id="edge37" class="edge">
<title>LDOE12_M12&#45;&gt;M12_LDOE12</title>
<path fill="none" stroke="red" d="M816.66,-114.31C837.05,-108.36 859.48,-102.86 880.59,-99.87 907.94,-95.99 937.5,-94.51 965.55,-94.33"/>
<polygon fill="red" stroke="red" points="965.81,-97.83 975.81,-94.32 965.81,-90.83 965.81,-97.83"/>
<text text-anchor="middle" x="905.09" y="-103.67" font-family="Times,serif" font-size="14.00">Pop 17</text>
</g>
<!-- A25_lita -->
<g id="node14" class="node">
<title>A25_lita</title>
<ellipse fill="none" stroke="black" cx="1091.13" cy="-536.87" rx="106.13" ry="26.74"/>
<text text-anchor="middle" x="1091.13" y="-540.67" font-family="Times,serif" font-size="14.00">13</text>
<text text-anchor="middle" x="1091.13" y="-525.67" font-family="Times,serif" font-size="14.00">A·2·5: &#39;a&#39; ● , B·3·5.</text>
</g>
<!-- A25_q0&#45;&gt;A25_lita -->
<g id="edge8" class="edge">
<title>A25_q0&#45;&gt;A25_lita</title>
<path fill="none" stroke="transparent" stroke-dasharray="1,5" d="M1091.13,-598.85C1091.13,-591.1 1091.13,-582.5 1091.13,-574.25"/>
<polygon fill="transparent" stroke="transparent" points="1094.63,-574.06 1091.13,-564.06 1087.63,-574.06 1094.63,-574.06"/>
<text text-anchor="middle" x="1080.63" y="-577.67" font-family="Times,serif" font-size="14.00" fill="#fffffe">a</text>
</g>
<!-- A25_q0&#45;&gt;A25_lita -->
<g id="edge32" class="edge">
<title>A25_q0&#45;&gt;A25_lita</title>
<path fill="none" stroke="red" d="M1105.12,-598.85C1106.78,-594.6 1108.21,-590.19 1109.13,-585.87 1110,-581.85 1109.99,-577.71 1109.39,-573.63"/>
<polygon fill="red" stroke="red" points="1112.72,-572.5 1106.85,-563.68 1105.93,-574.24 1112.72,-572.5"/>
<text text-anchor="middle" x="1101.63" y="-577.67" font-family="Times,serif" font-size="14.00">a</text>
</g>
<!-- A25_B35 -->
<g id="node15" class="node">
<title>A25_B35</title>
<ellipse fill="none" stroke="black" cx="1476.22" cy="-26.87" rx="106.13" ry="26.74"/>
<text text-anchor="middle" x="1476.22" y="-30.67" font-family="Times,serif" font-size="14.00">14</text>
<text text-anchor="middle" x="1476.22" y="-15.67" font-family="Times,serif" font-size="14.00">A·2·5: &#39;a&#39;, B·3·5 ● .</text>
</g>
<!-- A25_lita&#45;&gt;A25_B35 -->
<g id="edge9" class="edge">
<title>A25_lita&#45;&gt;A25_B35</title>
<path fill="none" stroke="black" stroke-dasharray="1,5" d="M1195.05,-531.12C1237.55,-523.13 1283.22,-506.12 1310.68,-470.87 1337.4,-436.56 1302.88,-114.89 1328.68,-79.87 1340.55,-63.75 1357.8,-52.52 1376.33,-44.7"/>
<polygon fill="black" stroke="black" points="1377.76,-47.91 1385.82,-41.03 1375.23,-41.38 1377.76,-47.91"/>
</g>
<!-- B35_q0 -->
<g id="node19" class="node">
<title>B35_q0</title>
<ellipse fill="none" stroke="black" cx="1091.13" cy="-447.87" rx="143.59" ry="26.74"/>
<text text-anchor="middle" x="1091.13" y="-451.67" font-family="Times,serif" font-size="14.00">18</text>
<text text-anchor="middle" x="1091.13" y="-436.67" font-family="Times,serif" font-size="14.00">B·3·5: &#160;● LDOE·3·4, A·4·5.</text>
</g>
<!-- A25_lita&#45;&gt;B35_q0 -->
<g id="edge33" class="edge">
<title>A25_lita&#45;&gt;B35_q0</title>
<path fill="none" stroke="red" d="M1091.13,-509.85C1091.13,-502.1 1091.13,-493.5 1091.13,-485.25"/>
<polygon fill="red" stroke="red" points="1094.63,-485.06 1091.13,-475.06 1087.63,-485.06 1094.63,-485.06"/>
<text text-anchor="middle" x="1080.63" y="-488.67" font-family="Times,serif" font-size="14.00">Push 14</text>
</g>
<!-- A25_B35&#45;&gt;B15_A25 -->
<g id="edge28" class="edge">
<title>A25_B35&#45;&gt;B15_A25</title>
<path fill="none" stroke="red" d="M1561.47,-43.11C1584.1,-50.99 1606.94,-62.64 1623.76,-79.87 1689.26,-146.94 1668.49,-188.81 1690.76,-279.87 1702.95,-329.7 1692.55,-345.21 1708.76,-393.87 1738.67,-483.65 1795.59,-579.3 1829.01,-631.4"/>
<polygon fill="red" stroke="red" points="1826.19,-633.5 1834.56,-640 1832.07,-629.7 1826.19,-633.5"/>
<text text-anchor="middle" x="1666.26" y="-283.67" font-family="Times,serif" font-size="14.00">Pop 9</text>
</g>
<!-- M12_q0&#45;&gt;LDOE12_q0 -->
<g id="edge36" class="edge">
<title>M12_q0&#45;&gt;LDOE12_q0</title>
<path fill="none" stroke="red" d="M630.85,-339.87C593.44,-339.87 551.67,-339.87 513.71,-339.87"/>
<polygon fill="red" stroke="red" points="513.63,-336.37 503.63,-339.87 513.63,-343.37 513.63,-336.37"/>
<text text-anchor="middle" x="579.9" y="-343.67" font-family="Times,serif" font-size="14.00">Push 17</text>
</g>
<!-- M12_litm -->
<g id="node17" class="node">
<title>M12_litm</title>
<ellipse fill="none" stroke="black" cx="744.75" cy="-235.87" rx="79.81" ry="26.76"/>
<ellipse fill="none" stroke="black" cx="744.75" cy="-235.87" rx="83.81" ry="30.74"/>
<text text-anchor="middle" x="744.75" y="-239.67" font-family="Times,serif" font-size="14.00">16</text>
<text text-anchor="middle" x="744.75" y="-224.67" font-family="Times,serif" font-size="14.00">M·1·2: &#39;m&#39; ● .</text>
</g>
<!-- M12_q0&#45;&gt;M12_litm -->
<g id="edge10" class="edge">
<title>M12_q0&#45;&gt;M12_litm</title>
<path fill="none" stroke="transparent" stroke-dasharray="1,5" d="M744.75,-302.26C744.75,-294.08 744.75,-285.37 744.75,-277.05"/>
<polygon fill="transparent" stroke="transparent" points="748.25,-276.79 744.75,-266.79 741.25,-276.79 748.25,-276.79"/>
<text text-anchor="middle" x="734.25" y="-280.87" font-family="Times,serif" font-size="14.00" fill="#fffffe">m</text>
</g>
<!-- M12_q0&#45;&gt;M12_litm -->
<g id="edge35" class="edge">
<title>M12_q0&#45;&gt;M12_litm</title>
<path fill="none" stroke="red" d="M761.66,-302.55C763.64,-294.37 764.43,-285.73 762.75,-277.57 762.65,-277.1 762.55,-276.64 762.44,-276.17"/>
<polygon fill="red" stroke="red" points="765.74,-274.99 759.57,-266.38 759.03,-276.96 765.74,-274.99"/>
<text text-anchor="middle" x="755.25" y="-280.87" font-family="Times,serif" font-size="14.00">m</text>
</g>
<!-- M12_q0&#45;&gt;M12_LDOE12 -->
<g id="edge11" class="edge">
<title>M12_q0&#45;&gt;M12_LDOE12</title>
<path fill="none" stroke="black" stroke-dasharray="1,5" d="M823.08,-312.33C861.28,-294.69 904.46,-267.87 929.59,-229.87 951.85,-196.21 920.13,-170.44 947.59,-140.87 955.93,-131.89 966.1,-124.87 977.13,-119.39"/>
<polygon fill="black" stroke="black" points="978.9,-122.43 986.59,-115.14 976.03,-116.05 978.9,-122.43"/>
</g>
<!-- M12_litm&#45;&gt;LDOE12_M12 -->
<g id="edge30" class="edge">
<title>M12_litm&#45;&gt;LDOE12_M12</title>
<path fill="none" stroke="red" d="M744.75,-204.87C744.75,-196.91 744.75,-188.22 744.75,-179.83"/>
<polygon fill="red" stroke="red" points="748.25,-179.83 744.75,-169.83 741.25,-179.83 748.25,-179.83"/>
<text text-anchor="middle" x="734.25" y="-183.67" font-family="Times,serif" font-size="14.00">Pop 11</text>
</g>
<!-- M12_LDOE12&#45;&gt;LDOE12_M12 -->
<g id="edge31" class="edge">
<title>M12_LDOE12&#45;&gt;LDOE12_M12</title>
<path fill="none" stroke="red" d="M982.2,-112.78C944.63,-116.92 902.3,-121.6 863.95,-125.83"/>
<polygon fill="red" stroke="red" points="863.32,-122.38 853.77,-126.95 864.09,-129.33 863.32,-122.38"/>
<text text-anchor="middle" x="905.09" y="-127.67" font-family="Times,serif" font-size="14.00">Pop 11</text>
</g>
<!-- B35_LDOE34 -->
<g id="node20" class="node">
<title>B35_LDOE34</title>
<ellipse fill="none" stroke="black" cx="1091.13" cy="-265.87" rx="143.59" ry="26.74"/>
<text text-anchor="middle" x="1091.13" y="-269.67" font-family="Times,serif" font-size="14.00">19</text>
<text text-anchor="middle" x="1091.13" y="-254.67" font-family="Times,serif" font-size="14.00">B·3·5: LDOE·3·4 ● , A·4·5.</text>
</g>
<!-- B35_q0&#45;&gt;B35_LDOE34 -->
<g id="edge12" class="edge">
<title>B35_q0&#45;&gt;B35_LDOE34</title>
<path fill="none" stroke="black" stroke-dasharray="1,5" d="M974.16,-432.12C947.25,-422.76 921.69,-408.01 905.09,-384.87 885.93,-358.14 884.75,-336.72 905.09,-310.87 916.28,-296.66 931.11,-286.46 947.54,-279.2"/>
<polygon fill="black" stroke="black" points="948.85,-282.44 956.82,-275.46 946.24,-275.95 948.85,-282.44"/>
</g>
<!-- LDOE34_q0 -->
<g id="node22" class="node">
<title>LDOE34_q0</title>
<ellipse fill="none" stroke="black" cx="1091.13" cy="-347.87" rx="113.69" ry="37.45"/>
<text text-anchor="middle" x="1091.13" y="-359.17" font-family="Times,serif" font-size="14.00">21</text>
<text text-anchor="middle" x="1091.13" y="-344.17" font-family="Times,serif" font-size="14.00">LDOE·3·4: &#160;● M·3·4.</text>
<text text-anchor="middle" x="1091.13" y="-329.17" font-family="Times,serif" font-size="14.00">LDOE·3·4: ● &#39;l&#39;.</text>
</g>
<!-- B35_q0&#45;&gt;LDOE34_q0 -->
<g id="edge38" class="edge">
<title>B35_q0&#45;&gt;LDOE34_q0</title>
<path fill="none" stroke="red" d="M1091.13,-420.76C1091.13,-412.93 1091.13,-404.16 1091.13,-395.47"/>
<polygon fill="red" stroke="red" points="1094.63,-395.39 1091.13,-385.39 1087.63,-395.39 1094.63,-395.39"/>
<text text-anchor="middle" x="1080.63" y="-399.47" font-family="Times,serif" font-size="14.00">Push 19</text>
</g>
<!-- B35_A45 -->
<g id="node21" class="node">
<title>B35_A45</title>
<ellipse fill="none" stroke="black" cx="1476.22" cy="-119.87" rx="143.58" ry="26.76"/>
<ellipse fill="none" stroke="black" cx="1476.22" cy="-119.87" rx="147.59" ry="30.74"/>
<text text-anchor="middle" x="1476.22" y="-123.67" font-family="Times,serif" font-size="14.00">20</text>
<text text-anchor="middle" x="1476.22" y="-108.67" font-family="Times,serif" font-size="14.00">B·3·5: LDOE·3·4, A·4·5 ● .</text>
</g>
<!-- B35_LDOE34&#45;&gt;B35_A45 -->
<g id="edge13" class="edge">
<title>B35_LDOE34&#45;&gt;B35_A45</title>
<path fill="none" stroke="black" stroke-dasharray="1,5" d="M1215.81,-252.52C1249.15,-244.26 1283.47,-231.03 1310.68,-209.87 1323.86,-199.61 1316.13,-187.9 1328.68,-176.87 1342.08,-165.08 1358.2,-155.6 1374.77,-148.01"/>
<polygon fill="black" stroke="black" points="1376.24,-151.19 1384.01,-143.99 1373.45,-144.77 1376.24,-151.19"/>
</g>
<!-- A45_q0 -->
<g id="node25" class="node">
<title>A45_q0</title>
<ellipse fill="none" stroke="black" cx="1091.13" cy="-176.87" rx="73.58" ry="26.74"/>
<text text-anchor="middle" x="1091.13" y="-180.67" font-family="Times,serif" font-size="14.00">24</text>
<text text-anchor="middle" x="1091.13" y="-165.67" font-family="Times,serif" font-size="14.00">A·4·5: &#160;● &#39;x&#39;.</text>
</g>
<!-- B35_LDOE34&#45;&gt;A45_q0 -->
<g id="edge41" class="edge">
<title>B35_LDOE34&#45;&gt;A45_q0</title>
<path fill="none" stroke="red" d="M1091.13,-238.85C1091.13,-231.1 1091.13,-222.5 1091.13,-214.25"/>
<polygon fill="red" stroke="red" points="1094.63,-214.06 1091.13,-204.06 1087.63,-214.06 1094.63,-214.06"/>
<text text-anchor="middle" x="1080.63" y="-217.67" font-family="Times,serif" font-size="14.00">Push 20</text>
</g>
<!-- B35_A45&#45;&gt;A25_B35 -->
<g id="edge34" class="edge">
<title>B35_A45&#45;&gt;A25_B35</title>
<path fill="none" stroke="red" d="M1476.22,-88.77C1476.22,-80.8 1476.22,-72.14 1476.22,-63.9"/>
<polygon fill="red" stroke="red" points="1479.72,-63.77 1476.22,-53.77 1472.72,-63.77 1479.72,-63.77"/>
<text text-anchor="middle" x="1465.72" y="-67.67" font-family="Times,serif" font-size="14.00">Pop 14</text>
</g>
<!-- LDOE34_M34 -->
<g id="node23" class="node">
<title>LDOE34_M34</title>
<ellipse fill="none" stroke="black" cx="1476.22" cy="-296.87" rx="113.69" ry="26.76"/>
<ellipse fill="none" stroke="black" cx="1476.22" cy="-296.87" rx="117.69" ry="30.74"/>
<text text-anchor="middle" x="1476.22" y="-300.67" font-family="Times,serif" font-size="14.00">22</text>
<text text-anchor="middle" x="1476.22" y="-285.67" font-family="Times,serif" font-size="14.00">LDOE·3·4: M·3·4 ● .</text>
</g>
<!-- LDOE34_q0&#45;&gt;LDOE34_M34 -->
<g id="edge14" class="edge">
<title>LDOE34_q0&#45;&gt;LDOE34_M34</title>
<path fill="none" stroke="black" stroke-dasharray="1,5" d="M1197.07,-333.9C1247.85,-327.14 1308.91,-319.01 1360.87,-312.09"/>
<polygon fill="black" stroke="black" points="1361.35,-315.56 1370.8,-310.77 1360.42,-308.62 1361.35,-315.56"/>
</g>
<!-- LDOE34_litl -->
<g id="node24" class="node">
<title>LDOE34_litl</title>
<ellipse fill="none" stroke="black" cx="1476.22" cy="-376.87" rx="90.52" ry="26.76"/>
<ellipse fill="none" stroke="black" cx="1476.22" cy="-376.87" rx="94.52" ry="30.74"/>
<text text-anchor="middle" x="1476.22" y="-380.67" font-family="Times,serif" font-size="14.00">23</text>
<text text-anchor="middle" x="1476.22" y="-365.67" font-family="Times,serif" font-size="14.00">LDOE·3·4: &#39;l&#39; ●.</text>
</g>
<!-- LDOE34_q0&#45;&gt;LDOE34_litl -->
<g id="edge15" class="edge">
<title>LDOE34_q0&#45;&gt;LDOE34_litl</title>
<path fill="none" stroke="transparent" stroke-dasharray="1,5" d="M1190.76,-366.18C1211.16,-369.31 1232.57,-372.12 1252.68,-373.87 1291.29,-377.24 1333.82,-378.43 1371.26,-378.63"/>
<polygon fill="transparent" stroke="transparent" points="1371.67,-382.13 1381.68,-378.66 1371.69,-375.13 1371.67,-382.13"/>
<text text-anchor="middle" x="1281.68" y="-381.67" font-family="Times,serif" font-size="14.00" fill="#fffffe">l</text>
</g>
<!-- LDOE34_q0&#45;&gt;LDOE34_litl -->
<g id="edge45" class="edge">
<title>LDOE34_q0&#45;&gt;LDOE34_litl</title>
<path fill="none" stroke="red" d="M1205.12,-349.32C1239.1,-350.34 1276.44,-352.04 1310.68,-354.87 1333.32,-356.74 1357.62,-359.55 1380.41,-362.53"/>
<polygon fill="red" stroke="red" points="1380.05,-366.02 1390.42,-363.87 1380.97,-359.08 1380.05,-366.02"/>
<text text-anchor="middle" x="1281.68" y="-358.67" font-family="Times,serif" font-size="14.00">l</text>
</g>
<!-- M34_q0 -->
<g id="node27" class="node">
<title>M34_q0</title>
<ellipse fill="none" stroke="black" cx="1476.22" cy="-452.87" rx="113.69" ry="26.74"/>
<text text-anchor="middle" x="1476.22" y="-456.67" font-family="Times,serif" font-size="14.00">26</text>
<text text-anchor="middle" x="1476.22" y="-441.67" font-family="Times,serif" font-size="14.00">M·3·4: &#160;● LDOE·3·4.</text>
</g>
<!-- LDOE34_q0&#45;&gt;M34_q0 -->
<g id="edge43" class="edge">
<title>LDOE34_q0&#45;&gt;M34_q0</title>
<path fill="none" stroke="red" d="M1174.45,-373.67C1199.51,-381.34 1227.17,-389.62 1252.68,-396.87 1286.28,-406.41 1294.83,-408.26 1328.68,-416.87 1347.27,-421.6 1367.22,-426.57 1386.22,-431.26"/>
<polygon fill="red" stroke="red" points="1385.52,-434.69 1396.07,-433.68 1387.19,-427.89 1385.52,-434.69"/>
<text text-anchor="middle" x="1281.68" y="-416.67" font-family="Times,serif" font-size="14.00">Push 22</text>
</g>
<!-- LDOE34_M34&#45;&gt;B35_LDOE34 -->
<g id="edge39" class="edge">
<title>LDOE34_M34&#45;&gt;B35_LDOE34</title>
<path fill="none" stroke="red" d="M1395.96,-274.15C1369.12,-267.51 1338.82,-261.16 1310.68,-257.87 1285.18,-254.89 1257.91,-254.04 1231.57,-254.41"/>
<polygon fill="red" stroke="red" points="1231.46,-250.91 1221.53,-254.61 1231.6,-257.91 1231.46,-250.91"/>
<text text-anchor="middle" x="1281.68" y="-261.67" font-family="Times,serif" font-size="14.00">Pop 19</text>
</g>
<!-- M34_LDOE34 -->
<g id="node28" class="node">
<title>M34_LDOE34</title>
<ellipse fill="none" stroke="black" cx="1856.31" cy="-357.87" rx="113.69" ry="26.74"/>
<text text-anchor="middle" x="1856.31" y="-361.67" font-family="Times,serif" font-size="14.00">27</text>
<text text-anchor="middle" x="1856.31" y="-346.67" font-family="Times,serif" font-size="14.00">M·3·4: LDOE·3·4 ● .</text>
</g>
<!-- LDOE34_M34&#45;&gt;M34_LDOE34 -->
<g id="edge48" class="edge">
<title>LDOE34_M34&#45;&gt;M34_LDOE34</title>
<path fill="none" stroke="red" d="M1594.2,-295.48C1625.73,-296.67 1659.71,-299.39 1690.76,-304.87 1723.29,-310.61 1758.26,-321.21 1787.56,-331.43"/>
<polygon fill="red" stroke="red" points="1786.68,-334.83 1797.27,-334.87 1789.02,-328.23 1786.68,-334.83"/>
<text text-anchor="middle" x="1666.26" y="-308.67" font-family="Times,serif" font-size="14.00">Pop 27</text>
</g>
<!-- LDOE34_litl&#45;&gt;B35_LDOE34 -->
<g id="edge40" class="edge">
<title>LDOE34_litl&#45;&gt;B35_LDOE34</title>
<path fill="none" stroke="red" d="M1401.04,-358.01C1377.75,-351.72 1352.02,-344.39 1328.68,-336.87 1286.24,-323.21 1277.24,-315.13 1234.68,-301.87 1220.82,-297.55 1206.08,-293.38 1191.54,-289.49"/>
<polygon fill="red" stroke="red" points="1192.08,-286.02 1181.52,-286.85 1190.3,-292.79 1192.08,-286.02"/>
<text text-anchor="middle" x="1281.68" y="-334.67" font-family="Times,serif" font-size="14.00">Pop 19</text>
</g>
<!-- LDOE34_litl&#45;&gt;M34_LDOE34 -->
<g id="edge49" class="edge">
<title>LDOE34_litl&#45;&gt;M34_LDOE34</title>
<path fill="none" stroke="red" d="M1569.71,-372.22C1619.31,-369.73 1681.03,-366.63 1734.39,-363.95"/>
<polygon fill="red" stroke="red" points="1734.79,-367.43 1744.6,-363.43 1734.43,-360.44 1734.79,-367.43"/>
<text text-anchor="middle" x="1666.26" y="-372.67" font-family="Times,serif" font-size="14.00">Pop 27</text>
</g>
<!-- A45_litx -->
<g id="node26" class="node">
<title>A45_litx</title>
<ellipse fill="none" stroke="black" cx="1476.22" cy="-216.87" rx="73.58" ry="26.76"/>
<ellipse fill="none" stroke="black" cx="1476.22" cy="-216.87" rx="77.58" ry="30.74"/>
<text text-anchor="middle" x="1476.22" y="-220.67" font-family="Times,serif" font-size="14.00">25</text>
<text text-anchor="middle" x="1476.22" y="-205.67" font-family="Times,serif" font-size="14.00">A·4·5: &#39;x&#39; ● .</text>
</g>
<!-- A45_q0&#45;&gt;A45_litx -->
<g id="edge16" class="edge">
<title>A45_q0&#45;&gt;A45_litx</title>
<path fill="none" stroke="transparent" stroke-dasharray="1,5" d="M1153.73,-162.56C1197.71,-154.44 1258.15,-147.59 1310.68,-156.87 1346.77,-163.24 1385.35,-176.92 1416.08,-189.6"/>
<polygon fill="transparent" stroke="transparent" points="1414.77,-192.85 1425.35,-193.5 1417.48,-186.4 1414.77,-192.85"/>
<text text-anchor="middle" x="1281.68" y="-160.67" font-family="Times,serif" font-size="14.00" fill="#fffffe">x</text>
</g>
<!-- A45_q0&#45;&gt;A45_litx -->
<g id="edge46" class="edge">
<title>A45_q0&#45;&gt;A45_litx</title>
<path fill="none" stroke="red" d="M1161.95,-184.16C1226.31,-190.88 1321.96,-200.87 1390.63,-208.04"/>
<polygon fill="red" stroke="red" points="1390.67,-211.56 1400.98,-209.12 1391.4,-204.6 1390.67,-211.56"/>
<text text-anchor="middle" x="1281.68" y="-203.67" font-family="Times,serif" font-size="14.00">x</text>
</g>
<!-- A45_litx&#45;&gt;B35_A45 -->
<g id="edge42" class="edge">
<title>A45_litx&#45;&gt;B35_A45</title>
<path fill="none" stroke="red" d="M1476.22,-185.87C1476.22,-177.91 1476.22,-169.22 1476.22,-160.83"/>
<polygon fill="red" stroke="red" points="1479.72,-160.83 1476.22,-150.83 1472.72,-160.83 1479.72,-160.83"/>
<text text-anchor="middle" x="1465.72" y="-164.67" font-family="Times,serif" font-size="14.00">Pop 20</text>
</g>
<!-- M34_q0&#45;&gt;LDOE34_q0 -->
<g id="edge47" class="edge">
<title>M34_q0&#45;&gt;LDOE34_q0</title>
<path fill="none" stroke="red" d="M1364.66,-458.29C1327.44,-456.08 1286.74,-449 1252.68,-431.87 1241.99,-426.5 1244.34,-418.92 1234.68,-411.87 1217.55,-399.38 1197.6,-388.56 1178.15,-379.54"/>
<polygon fill="red" stroke="red" points="1179.51,-376.32 1168.96,-375.4 1176.63,-382.7 1179.51,-376.32"/>
<text text-anchor="middle" x="1281.68" y="-455.67" font-family="Times,serif" font-size="14.00">Push 27</text>
</g>
<!-- M34_q0&#45;&gt;M34_LDOE34 -->
<g id="edge17" class="edge">
<title>M34_q0&#45;&gt;M34_LDOE34</title>
<path fill="none" stroke="black" stroke-dasharray="1,5" d="M1555.96,-433.66C1577.92,-428.26 1601.78,-422.37 1623.76,-416.87 1671.84,-404.84 1725.47,-391.19 1769,-380.05"/>
<polygon fill="black" stroke="black" points="1769.87,-383.44 1778.69,-377.57 1768.14,-376.66 1769.87,-383.44"/>
</g>
<!-- M34_LDOE34&#45;&gt;LDOE34_M34 -->
<g id="edge44" class="edge">
<title>M34_LDOE34&#45;&gt;LDOE34_M34</title>
<path fill="none" stroke="red" d="M1761.75,-342.78C1708.91,-334.25 1642.57,-323.55 1587.25,-314.62"/>
<polygon fill="red" stroke="red" points="1587.48,-311.11 1577.05,-312.98 1586.37,-318.03 1587.48,-311.11"/>
<text text-anchor="middle" x="1666.26" y="-335.67" font-family="Times,serif" font-size="14.00">Pop 22</text>
</g>
</g>
</svg>
