<?xml version="1.0" encoding="UTF-8" standalone="no"?>
<!DOCTYPE svg PUBLIC "-//W3C//DTD SVG 1.1//EN"
 "http://www.w3.org/Graphics/SVG/1.1/DTD/svg11.dtd">
<!-- Generated by graphviz version 2.43.0 (0)
 -->
<!-- Title: ldoe_lr0 Pages: 1 -->
<svg width="479pt" height="1196pt"
 viewBox="0.00 0.00 478.69 1195.81" xmlns="http://www.w3.org/2000/svg" xmlns:xlink="http://www.w3.org/1999/xlink">
<g id="graph0" class="graph" transform="scale(1 1) rotate(0) translate(4 1191.81)">
<title>ldoe_lr0</title>
<polygon fill="white" stroke="transparent" points="-4,4 -4,-1191.81 474.69,-1191.81 474.69,4 -4,4"/>
<!-- G05_q0 -->
<g id="node1" class="node">
<title>G05_q0</title>
<ellipse fill="none" stroke="black" cx="202.84" cy="-1096.59" rx="140.93" ry="91.43"/>
<text text-anchor="middle" x="202.84" y="-1145.89" font-family="Times,serif" font-size="14.00">G·0·5: ● S·0·5.</text>
<text text-anchor="middle" x="202.84" y="-1130.89" font-family="Times,serif" font-size="14.00">S·0·5: ● A·0·5.</text>
<text text-anchor="middle" x="202.84" y="-1115.89" font-family="Times,serif" font-size="14.00">A·0·5: ● &#39;a&#39;, B·1·5.</text>
<text text-anchor="middle" x="202.84" y="-1084.89" font-family="Times,serif" font-size="14.00">[via &#39;a&#39;]</text>
<text text-anchor="middle" x="202.84" y="-1069.89" font-family="Times,serif" font-size="14.00">A·0·5: &#39;a&#39; ●, B·1·5.</text>
<text text-anchor="middle" x="202.84" y="-1054.89" font-family="Times,serif" font-size="14.00">B·1·5: ● LDOE·1·2, A·2·5.</text>
<text text-anchor="middle" x="202.84" y="-1039.89" font-family="Times,serif" font-size="14.00">LDOE·1·2: ● M·1·2.</text>
</g>
<!-- M12_q00 -->
<g id="node2" class="node">
<title>M12_q00</title>
<ellipse fill="none" stroke="black" cx="202.84" cy="-694.07" rx="143.59" ry="155.63"/>
<text text-anchor="middle" x="202.84" y="-788.87" font-family="Times,serif" font-size="14.00">M·1·2: &#160;● &#39;m&#39;.</text>
<text text-anchor="middle" x="202.84" y="-773.87" font-family="Times,serif" font-size="14.00">LDOE·1·2: M·1·2 ● .</text>
<text text-anchor="middle" x="202.84" y="-758.87" font-family="Times,serif" font-size="14.00">B·1·5: LDOE·1·2 ● , A·2·5.</text>
<text text-anchor="middle" x="202.84" y="-727.87" font-family="Times,serif" font-size="14.00">[via &#39;m&#39;]</text>
<text text-anchor="middle" x="202.84" y="-712.87" font-family="Times,serif" font-size="14.00">M·1·2: &#39;m&#39; ● .</text>
<text text-anchor="middle" x="202.84" y="-697.87" font-family="Times,serif" font-size="14.00">LDOE·1·2: M·1·2 ● .</text>
<text text-anchor="middle" x="202.84" y="-682.87" font-family="Times,serif" font-size="14.00">M·1·2: LDOE·1·2 ● .</text>
<text text-anchor="middle" x="202.84" y="-667.87" font-family="Times,serif" font-size="14.00">B·1·5: LDOE·1·2 ● , A·2·5.</text>
<text text-anchor="middle" x="202.84" y="-652.87" font-family="Times,serif" font-size="14.00">A·2·5: ● &#39;a&#39;, B·3·5.</text>
<text text-anchor="middle" x="202.84" y="-621.87" font-family="Times,serif" font-size="14.00">[via &#39;a&#39;]</text>
<text text-anchor="middle" x="202.84" y="-606.87" font-family="Times,serif" font-size="14.00">A·2·5: &#39;a&#39; ● , B·3·5.</text>
<text text-anchor="middle" x="202.84" y="-591.87" font-family="Times,serif" font-size="14.00">B·3·5: &#160;● LDOE·3·4, A·4·5.</text>
</g>
<!-- G05_q0&#45;&gt;M12_q00 -->
<g id="edge1" class="edge">
<title>G05_q0&#45;&gt;M12_q00</title>
<path fill="none" stroke="black" d="M197.7,-1005.21C196.92,-988.32 196.25,-970.82 195.84,-954.37 195.09,-923.8 195.22,-891.21 195.83,-859.81"/>
<polygon fill="black" stroke="black" points="199.34,-859.74 196.05,-849.67 192.34,-859.59 199.34,-859.74"/>
<text text-anchor="middle" x="200.84" y="-923.8" font-family="Times,serif" font-size="14.00" fill="red">0</text>
</g>
<!-- M12_q01 -->
<g id="node3" class="node">
<title>M12_q01</title>
<ellipse fill="none" stroke="black" cx="328.84" cy="-927.5" rx="113.69" ry="26.74"/>
<text text-anchor="middle" x="328.84" y="-931.3" font-family="Times,serif" font-size="14.00">M·1·2: &#160;● LDOE·1·2.</text>
<text text-anchor="middle" x="328.84" y="-916.3" font-family="Times,serif" font-size="14.00">LDOE·1·2: ● M·1·2.</text>
</g>
<!-- G05_q0&#45;&gt;M12_q01 -->
<g id="edge2" class="edge">
<title>G05_q0&#45;&gt;M12_q01</title>
<path fill="none" stroke="black" d="M264.37,-1014.01C278.18,-995.69 292.08,-977.25 303.42,-962.21"/>
<polygon fill="black" stroke="black" points="306.22,-964.32 309.45,-954.23 300.63,-960.1 306.22,-964.32"/>
<text text-anchor="middle" x="299.84" y="-976.17" font-family="Times,serif" font-size="14.00" fill="red">1</text>
</g>
<!-- LDOE34_q00 -->
<g id="node4" class="node">
<title>LDOE34_q00</title>
<ellipse fill="none" stroke="black" cx="113.84" cy="-460.64" rx="113.69" ry="26.74"/>
<text text-anchor="middle" x="113.84" y="-464.44" font-family="Times,serif" font-size="14.00">LDOE·3·4: ● M·3·4.</text>
<text text-anchor="middle" x="113.84" y="-449.44" font-family="Times,serif" font-size="14.00">M·3·4: &#160;● LDOE·3·4.</text>
</g>
<!-- M12_q00&#45;&gt;LDOE34_q00 -->
<g id="edge5" class="edge">
<title>M12_q00&#45;&gt;LDOE34_q00</title>
<path fill="none" stroke="black" d="M147.87,-550.12C140.4,-530.68 133.34,-512.33 127.61,-497.43"/>
<polygon fill="black" stroke="black" points="130.72,-495.77 123.86,-487.69 124.19,-498.28 130.72,-495.77"/>
<text text-anchor="middle" x="140.84" y="-509.31" font-family="Times,serif" font-size="14.00" fill="red">0</text>
</g>
<!-- LDOE34_q01 -->
<g id="node5" class="node">
<title>LDOE34_q01</title>
<ellipse fill="none" stroke="black" cx="202.84" cy="-191.38" rx="143.58" ry="187.27"/>
<ellipse fill="none" stroke="black" cx="202.84" cy="-191.38" rx="147.59" ry="191.27"/>
<text text-anchor="middle" x="202.84" y="-308.68" font-family="Times,serif" font-size="14.00">LDOE·3·4: ● &#39;l&#39;.</text>
<text text-anchor="middle" x="202.84" y="-277.68" font-family="Times,serif" font-size="14.00">[via &#39;l&#39;]</text>
<text text-anchor="middle" x="202.84" y="-262.68" font-family="Times,serif" font-size="14.00">LDOE·3·4: &#39;l&#39; ● .</text>
<text text-anchor="middle" x="202.84" y="-247.68" font-family="Times,serif" font-size="14.00">B·3·5: LDOE·3·4 ● , A·4·5.</text>
<text text-anchor="middle" x="202.84" y="-232.68" font-family="Times,serif" font-size="14.00">M·3·4: LDOE·3·4 ● .</text>
<text text-anchor="middle" x="202.84" y="-217.68" font-family="Times,serif" font-size="14.00">LDOE·3·4: M·3·4 ● .</text>
<text text-anchor="middle" x="202.84" y="-202.68" font-family="Times,serif" font-size="14.00">A·4·5: &#160;● &#39;x&#39;.</text>
<text text-anchor="middle" x="202.84" y="-171.68" font-family="Times,serif" font-size="14.00">[via &#39;a&#39;]</text>
<text text-anchor="middle" x="202.84" y="-156.68" font-family="Times,serif" font-size="14.00">A·4·5: &#39;x&#39; ● .</text>
<text text-anchor="middle" x="202.84" y="-141.68" font-family="Times,serif" font-size="14.00">B·3·5: LDOE·3·4, A·4·5 ● .</text>
<text text-anchor="middle" x="202.84" y="-126.68" font-family="Times,serif" font-size="14.00">A·2·5: &#39;a&#39;, B·3·5 ● .</text>
<text text-anchor="middle" x="202.84" y="-111.68" font-family="Times,serif" font-size="14.00">B·1·5: LDOE·1·2, A·2·5 ● .</text>
<text text-anchor="middle" x="202.84" y="-96.68" font-family="Times,serif" font-size="14.00">A·0·5: &#39;a&#39;, B·1·5 ●.</text>
<text text-anchor="middle" x="202.84" y="-81.68" font-family="Times,serif" font-size="14.00">S·0·5: A·0·5 ●.</text>
<text text-anchor="middle" x="202.84" y="-66.68" font-family="Times,serif" font-size="14.00">G·0·5: S·0·5 ● .</text>
</g>
<!-- M12_q00&#45;&gt;LDOE34_q01 -->
<g id="edge6" class="edge">
<title>M12_q00&#45;&gt;LDOE34_q01</title>
<path fill="none" stroke="black" d="M252.32,-548C257.49,-527.89 261.92,-507.33 264.84,-487.51 270.1,-451.88 268.06,-414.09 262.25,-377.88"/>
<polygon fill="black" stroke="black" points="265.65,-376.98 260.52,-367.71 258.75,-378.15 265.65,-376.98"/>
<text text-anchor="middle" x="273.84" y="-456.94" font-family="Times,serif" font-size="14.00" fill="red">1</text>
</g>
<!-- M12_q01&#45;&gt;M12_q00 -->
<g id="edge3" class="edge">
<title>M12_q01&#45;&gt;M12_q00</title>
<path fill="none" stroke="black" d="M314.64,-900.41C305.72,-884.03 293.45,-861.5 280.29,-837.32"/>
<polygon fill="black" stroke="black" points="283.26,-835.46 275.41,-828.35 277.12,-838.81 283.26,-835.46"/>
<text text-anchor="middle" x="308.84" y="-871.43" font-family="Times,serif" font-size="14.00" fill="red">0</text>
</g>
<!-- M12_q01&#45;&gt;M12_q01 -->
<g id="edge4" class="edge">
<title>M12_q01&#45;&gt;M12_q01</title>
<path fill="none" stroke="black" d="M436.7,-936.13C451.11,-934.67 460.69,-931.79 460.69,-927.5 460.69,-924.32 455.41,-921.91 446.8,-920.29"/>
<polygon fill="black" stroke="black" points="447.09,-916.8 436.7,-918.88 446.12,-923.73 447.09,-916.8"/>
<text text-anchor="middle" x="465.69" y="-923.8" font-family="Times,serif" font-size="14.00" fill="red">1</text>
</g>
<!-- LDOE34_q00&#45;&gt;LDOE34_q00 -->
<g id="edge7" class="edge">
<title>LDOE34_q00&#45;&gt;LDOE34_q00</title>
<path fill="none" stroke="black" d="M221.7,-469.26C236.11,-467.8 245.69,-464.93 245.69,-460.64 245.69,-457.45 240.41,-455.05 231.8,-453.42"/>
<polygon fill="black" stroke="black" points="232.09,-449.93 221.7,-452.01 231.12,-456.86 232.09,-449.93"/>
<text text-anchor="middle" x="250.69" y="-456.94" font-family="Times,serif" font-size="14.00" fill="red">0</text>
</g>
<!-- LDOE34_q00&#45;&gt;LDOE34_q01 -->
<g id="edge8" class="edge">
<title>LDOE34_q00&#45;&gt;LDOE34_q01</title>
<path fill="none" stroke="black" d="M122.54,-433.52C127.44,-418.81 134.04,-399 141.36,-377.02"/>
<polygon fill="black" stroke="black" points="144.7,-378.07 144.54,-367.48 138.05,-375.86 144.7,-378.07"/>
<text text-anchor="middle" x="138.84" y="-404.57" font-family="Times,serif" font-size="14.00" fill="red">1</text>
</g>
</g>
</svg>
