<?xml version="1.0" encoding="UTF-8" standalone="no"?>
<!DOCTYPE svg PUBLIC "-//W3C//DTD SVG 1.1//EN"
 "http://www.w3.org/Graphics/SVG/1.1/DTD/svg11.dtd">
<!-- Generated by graphviz version 2.43.0 (0)
 -->
<!-- Title: ldoe_rtn Pages: 1 -->
<svg width="569pt" height="764pt"
 viewBox="0.00 0.00 568.56 764.00" xmlns="http://www.w3.org/2000/svg" xmlns:xlink="http://www.w3.org/1999/xlink">
<g id="graph0" class="graph" transform="scale(1 1) rotate(0) translate(4 760)">
<title>ldoe_rtn</title>
<polygon fill="white" stroke="transparent" points="-4,4 -4,-760 564.56,-760 564.56,4 -4,4"/>
<!-- G05_q0 -->
<g id="node1" class="node">
<title>G05_q0</title>
<ellipse fill="none" stroke="black" cx="70.19" cy="-22" rx="50.09" ry="18"/>
<text text-anchor="middle" x="70.19" y="-18.3" font-family="Times,serif" font-size="14.00">G.0.5/q0</text>
</g>
<!-- G05_S05 -->
<g id="node2" class="node">
<title>G05_S05</title>
<ellipse fill="none" stroke="black" cx="285.38" cy="-22" rx="67.68" ry="18"/>
<ellipse fill="none" stroke="black" cx="285.38" cy="-22" rx="71.69" ry="22"/>
<text text-anchor="middle" x="285.38" y="-18.3" font-family="Times,serif" font-size="14.00">G.0.5/qS.0.5</text>
</g>
<!-- G05_q0&#45;&gt;G05_S05 -->
<g id="edge1" class="edge">
<title>G05_q0&#45;&gt;G05_S05</title>
<path fill="none" stroke="black" d="M120.37,-22C145.01,-22 175.49,-22 203.46,-22"/>
<polygon fill="black" stroke="black" points="203.63,-25.5 213.63,-22 203.63,-18.5 203.63,-25.5"/>
</g>
<!-- S05_q0 -->
<g id="node3" class="node">
<title>S05_q0</title>
<ellipse fill="none" stroke="black" cx="70.19" cy="-84" rx="48.99" ry="18"/>
<text text-anchor="middle" x="70.19" y="-80.3" font-family="Times,serif" font-size="14.00">S.0.5/q0</text>
</g>
<!-- S05_A05 -->
<g id="node4" class="node">
<title>S05_A05</title>
<ellipse fill="none" stroke="black" cx="285.38" cy="-84" rx="66.89" ry="18"/>
<ellipse fill="none" stroke="black" cx="285.38" cy="-84" rx="70.89" ry="22"/>
<text text-anchor="middle" x="285.38" y="-80.3" font-family="Times,serif" font-size="14.00">S.0.5/qA.0.5</text>
</g>
<!-- S05_q0&#45;&gt;S05_A05 -->
<g id="edge2" class="edge">
<title>S05_q0&#45;&gt;S05_A05</title>
<path fill="none" stroke="black" d="M119.04,-84C144.07,-84 175.4,-84 204.03,-84"/>
<polygon fill="black" stroke="black" points="204.03,-87.5 214.03,-84 204.03,-80.5 204.03,-87.5"/>
</g>
<!-- A05_q0 -->
<g id="node5" class="node">
<title>A05_q0</title>
<ellipse fill="none" stroke="black" cx="70.19" cy="-142" rx="49.29" ry="18"/>
<text text-anchor="middle" x="70.19" y="-138.3" font-family="Times,serif" font-size="14.00">A.0.5/q0</text>
</g>
<!-- A05_lita -->
<g id="node6" class="node">
<title>A05_lita</title>
<ellipse fill="none" stroke="black" cx="285.38" cy="-142" rx="64.19" ry="18"/>
<text text-anchor="middle" x="285.38" y="-138.3" font-family="Times,serif" font-size="14.00">A.0.5/q.lit.a</text>
</g>
<!-- A05_q0&#45;&gt;A05_lita -->
<g id="edge3" class="edge">
<title>A05_q0&#45;&gt;A05_lita</title>
<path fill="none" stroke="black" d="M119.84,-142C146.78,-142 180.81,-142 210.93,-142"/>
<polygon fill="black" stroke="black" points="210.97,-145.5 220.97,-142 210.97,-138.5 210.97,-145.5"/>
<text text-anchor="middle" x="165.39" y="-145.8" font-family="Times,serif" font-size="14.00">a</text>
</g>
<!-- A05_B15 -->
<g id="node7" class="node">
<title>A05_B15</title>
<ellipse fill="none" stroke="black" cx="488.97" cy="-142" rx="67.68" ry="18"/>
<ellipse fill="none" stroke="black" cx="488.97" cy="-142" rx="71.69" ry="22"/>
<text text-anchor="middle" x="488.97" y="-138.3" font-family="Times,serif" font-size="14.00">A.0.5/qB.1.5</text>
</g>
<!-- A05_lita&#45;&gt;A05_B15 -->
<g id="edge4" class="edge">
<title>A05_lita&#45;&gt;A05_B15</title>
<path fill="none" stroke="black" d="M349.89,-142C367.98,-142 387.95,-142 406.94,-142"/>
<polygon fill="black" stroke="black" points="407.07,-145.5 417.07,-142 407.07,-138.5 407.07,-145.5"/>
</g>
<!-- B15_q0 -->
<g id="node8" class="node">
<title>B15_q0</title>
<ellipse fill="none" stroke="black" cx="70.19" cy="-204" rx="50.09" ry="18"/>
<text text-anchor="middle" x="70.19" y="-200.3" font-family="Times,serif" font-size="14.00">B.1.5/q0</text>
</g>
<!-- B15_LDOE12 -->
<g id="node9" class="node">
<title>B15_LDOE12</title>
<ellipse fill="none" stroke="black" cx="285.38" cy="-204" rx="89.08" ry="18"/>
<text text-anchor="middle" x="285.38" y="-200.3" font-family="Times,serif" font-size="14.00">B.1.5/qLDOE.1.2</text>
</g>
<!-- B15_q0&#45;&gt;B15_LDOE12 -->
<g id="edge5" class="edge">
<title>B15_q0&#45;&gt;B15_LDOE12</title>
<path fill="none" stroke="black" d="M120.37,-204C139.97,-204 163.27,-204 186.05,-204"/>
<polygon fill="black" stroke="black" points="186.12,-207.5 196.12,-204 186.12,-200.5 186.12,-207.5"/>
</g>
<!-- B15_A25 -->
<g id="node10" class="node">
<title>B15_A25</title>
<ellipse fill="none" stroke="black" cx="488.97" cy="-204" rx="67.68" ry="18"/>
<ellipse fill="none" stroke="black" cx="488.97" cy="-204" rx="71.69" ry="22"/>
<text text-anchor="middle" x="488.97" y="-200.3" font-family="Times,serif" font-size="14.00">B.1.5/qA.2.5</text>
</g>
<!-- B15_LDOE12&#45;&gt;B15_A25 -->
<g id="edge6" class="edge">
<title>B15_LDOE12&#45;&gt;B15_A25</title>
<path fill="none" stroke="black" d="M374.5,-204C385.34,-204 396.38,-204 407.1,-204"/>
<polygon fill="black" stroke="black" points="407.27,-207.5 417.27,-204 407.27,-200.5 407.27,-207.5"/>
</g>
<!-- LDOE12_q0 -->
<g id="node11" class="node">
<title>LDOE12_q0</title>
<ellipse fill="none" stroke="black" cx="70.19" cy="-262" rx="70.39" ry="18"/>
<text text-anchor="middle" x="70.19" y="-258.3" font-family="Times,serif" font-size="14.00">LDOE.1.2/q0</text>
</g>
<!-- LDOE12_M12 -->
<g id="node12" class="node">
<title>LDOE12_M12</title>
<ellipse fill="none" stroke="black" cx="285.38" cy="-262" rx="90.98" ry="18"/>
<ellipse fill="none" stroke="black" cx="285.38" cy="-262" rx="94.98" ry="22"/>
<text text-anchor="middle" x="285.38" y="-258.3" font-family="Times,serif" font-size="14.00">LDOE.1.2/qM.1.2</text>
</g>
<!-- LDOE12_q0&#45;&gt;LDOE12_M12 -->
<g id="edge7" class="edge">
<title>LDOE12_q0&#45;&gt;LDOE12_M12</title>
<path fill="none" stroke="black" d="M140.41,-262C153.1,-262 166.6,-262 180.06,-262"/>
<polygon fill="black" stroke="black" points="180.32,-265.5 190.32,-262 180.32,-258.5 180.32,-265.5"/>
</g>
<!-- A25_q0 -->
<g id="node13" class="node">
<title>A25_q0</title>
<ellipse fill="none" stroke="black" cx="70.19" cy="-320" rx="49.29" ry="18"/>
<text text-anchor="middle" x="70.19" y="-316.3" font-family="Times,serif" font-size="14.00">A.2.5/q0</text>
</g>
<!-- A25_lita -->
<g id="node14" class="node">
<title>A25_lita</title>
<ellipse fill="none" stroke="black" cx="285.38" cy="-320" rx="67.69" ry="18"/>
<text text-anchor="middle" x="285.38" y="-316.3" font-family="Times,serif" font-size="14.00">A.2.5/q_lit_a</text>
</g>
<!-- A25_q0&#45;&gt;A25_lita -->
<g id="edge8" class="edge">
<title>A25_q0&#45;&gt;A25_lita</title>
<path fill="none" stroke="black" d="M119.84,-320C145.78,-320 178.3,-320 207.57,-320"/>
<polygon fill="black" stroke="black" points="207.77,-323.5 217.77,-320 207.77,-316.5 207.77,-323.5"/>
<text text-anchor="middle" x="165.39" y="-323.8" font-family="Times,serif" font-size="14.00">a</text>
</g>
<!-- A25_qB35 -->
<g id="node15" class="node">
<title>A25_qB35</title>
<ellipse fill="none" stroke="black" cx="488.97" cy="-320" rx="67.69" ry="18"/>
<text text-anchor="middle" x="488.97" y="-316.3" font-family="Times,serif" font-size="14.00">A.2.5/qB.3.5</text>
</g>
<!-- A25_lita&#45;&gt;A25_qB35 -->
<g id="edge9" class="edge">
<title>A25_lita&#45;&gt;A25_qB35</title>
<path fill="none" stroke="black" d="M353.22,-320C371.78,-320 392.07,-320 411.15,-320"/>
<polygon fill="black" stroke="black" points="411.3,-323.5 421.3,-320 411.3,-316.5 411.3,-323.5"/>
</g>
<!-- M12_q0 -->
<g id="node16" class="node">
<title>M12_q0</title>
<ellipse fill="none" stroke="black" cx="70.19" cy="-409" rx="51.99" ry="18"/>
<text text-anchor="middle" x="70.19" y="-405.3" font-family="Times,serif" font-size="14.00">M.1.2/q0</text>
</g>
<!-- M12_qlitm -->
<g id="node17" class="node">
<title>M12_qlitm</title>
<ellipse fill="none" stroke="black" cx="285.38" cy="-440" rx="73.39" ry="18"/>
<ellipse fill="none" stroke="black" cx="285.38" cy="-440" rx="77.39" ry="22"/>
<text text-anchor="middle" x="285.38" y="-436.3" font-family="Times,serif" font-size="14.00">M.1.2/q_lit_m</text>
</g>
<!-- M12_q0&#45;&gt;M12_qlitm -->
<g id="edge10" class="edge">
<title>M12_q0&#45;&gt;M12_qlitm</title>
<path fill="none" stroke="black" d="M118.51,-415.88C144.18,-419.61 176.59,-424.33 205.93,-428.59"/>
<polygon fill="black" stroke="black" points="205.77,-432.11 216.17,-430.08 206.77,-425.18 205.77,-432.11"/>
<text text-anchor="middle" x="165.39" y="-427.8" font-family="Times,serif" font-size="14.00">m</text>
</g>
<!-- M12_qLDOE12 -->
<g id="node18" class="node">
<title>M12_qLDOE12</title>
<ellipse fill="none" stroke="black" cx="285.38" cy="-378" rx="85.28" ry="18"/>
<ellipse fill="none" stroke="black" cx="285.38" cy="-378" rx="89.29" ry="22"/>
<text text-anchor="middle" x="285.38" y="-374.3" font-family="Times,serif" font-size="14.00">M.1.2/qLDOE12</text>
</g>
<!-- M12_q0&#45;&gt;M12_qLDOE12 -->
<g id="edge11" class="edge">
<title>M12_q0&#45;&gt;M12_qLDOE12</title>
<path fill="none" stroke="black" d="M118.51,-402.12C142,-398.7 171.12,-394.47 198.37,-390.51"/>
<polygon fill="black" stroke="black" points="198.92,-393.96 208.31,-389.06 197.91,-387.04 198.92,-393.96"/>
</g>
<!-- B35_q0 -->
<g id="node19" class="node">
<title>B35_q0</title>
<ellipse fill="none" stroke="black" cx="70.19" cy="-498" rx="50.09" ry="18"/>
<text text-anchor="middle" x="70.19" y="-494.3" font-family="Times,serif" font-size="14.00">B.3.5/q0</text>
</g>
<!-- B35_LDOE34 -->
<g id="node20" class="node">
<title>B35_LDOE34</title>
<ellipse fill="none" stroke="black" cx="285.38" cy="-498" rx="89.08" ry="18"/>
<text text-anchor="middle" x="285.38" y="-494.3" font-family="Times,serif" font-size="14.00">B.3.5/qLDOE.3.4</text>
</g>
<!-- B35_q0&#45;&gt;B35_LDOE34 -->
<g id="edge12" class="edge">
<title>B35_q0&#45;&gt;B35_LDOE34</title>
<path fill="none" stroke="black" d="M120.37,-498C139.97,-498 163.27,-498 186.05,-498"/>
<polygon fill="black" stroke="black" points="186.12,-501.5 196.12,-498 186.12,-494.5 186.12,-501.5"/>
</g>
<!-- B35_A45 -->
<g id="node21" class="node">
<title>B35_A45</title>
<ellipse fill="none" stroke="black" cx="488.97" cy="-498" rx="67.68" ry="18"/>
<ellipse fill="none" stroke="black" cx="488.97" cy="-498" rx="71.69" ry="22"/>
<text text-anchor="middle" x="488.97" y="-494.3" font-family="Times,serif" font-size="14.00">B.3.5/qA.4.5</text>
</g>
<!-- B35_LDOE34&#45;&gt;B35_A45 -->
<g id="edge13" class="edge">
<title>B35_LDOE34&#45;&gt;B35_A45</title>
<path fill="none" stroke="black" d="M374.5,-498C385.34,-498 396.38,-498 407.1,-498"/>
<polygon fill="black" stroke="black" points="407.27,-501.5 417.27,-498 407.27,-494.5 407.27,-501.5"/>
</g>
<!-- LDOE35_q0 -->
<g id="node22" class="node">
<title>LDOE35_q0</title>
<ellipse fill="none" stroke="black" cx="70.19" cy="-587" rx="70.39" ry="18"/>
<text text-anchor="middle" x="70.19" y="-583.3" font-family="Times,serif" font-size="14.00">LDOE.3.5/q0</text>
</g>
<!-- LDOE35_qM34 -->
<g id="node23" class="node">
<title>LDOE35_qM34</title>
<ellipse fill="none" stroke="black" cx="285.38" cy="-618" rx="90.98" ry="18"/>
<ellipse fill="none" stroke="black" cx="285.38" cy="-618" rx="94.98" ry="22"/>
<text text-anchor="middle" x="285.38" y="-614.3" font-family="Times,serif" font-size="14.00">LDOE.3.5/M.3.40</text>
</g>
<!-- LDOE35_q0&#45;&gt;LDOE35_qM34 -->
<g id="edge14" class="edge">
<title>LDOE35_q0&#45;&gt;LDOE35_qM34</title>
<path fill="none" stroke="black" d="M131.71,-595.8C151.27,-598.64 173.38,-601.86 194.59,-604.94"/>
<polygon fill="black" stroke="black" points="194.18,-608.42 204.58,-606.4 195.19,-601.49 194.18,-608.42"/>
</g>
<!-- LDOE35_qlitl -->
<g id="node24" class="node">
<title>LDOE35_qlitl</title>
<ellipse fill="none" stroke="black" cx="285.38" cy="-556" rx="85.59" ry="18"/>
<ellipse fill="none" stroke="black" cx="285.38" cy="-556" rx="89.59" ry="22"/>
<text text-anchor="middle" x="285.38" y="-552.3" font-family="Times,serif" font-size="14.00">LDOE.3.5/q_lit_l</text>
</g>
<!-- LDOE35_q0&#45;&gt;LDOE35_qlitl -->
<g id="edge15" class="edge">
<title>LDOE35_q0&#45;&gt;LDOE35_qlitl</title>
<path fill="none" stroke="black" d="M131.71,-578.2C152.21,-575.22 175.52,-571.83 197.65,-568.61"/>
<polygon fill="black" stroke="black" points="198.32,-572.05 207.72,-567.15 197.32,-565.12 198.32,-572.05"/>
<text text-anchor="middle" x="165.39" y="-577.8" font-family="Times,serif" font-size="14.00">l</text>
</g>
<!-- A45_q0 -->
<g id="node25" class="node">
<title>A45_q0</title>
<ellipse fill="none" stroke="black" cx="70.19" cy="-680" rx="49.29" ry="18"/>
<text text-anchor="middle" x="70.19" y="-676.3" font-family="Times,serif" font-size="14.00">A.4.5/q0</text>
</g>
<!-- A45_qlitx -->
<g id="node26" class="node">
<title>A45_qlitx</title>
<ellipse fill="none" stroke="black" cx="285.38" cy="-680" rx="67.68" ry="18"/>
<ellipse fill="none" stroke="black" cx="285.38" cy="-680" rx="71.69" ry="22"/>
<text text-anchor="middle" x="285.38" y="-676.3" font-family="Times,serif" font-size="14.00">A.4.5/q_lit_x</text>
</g>
<!-- A45_q0&#45;&gt;A45_qlitx -->
<g id="edge16" class="edge">
<title>A45_q0&#45;&gt;A45_qlitx</title>
<path fill="none" stroke="black" d="M119.84,-680C144.57,-680 175.29,-680 203.46,-680"/>
<polygon fill="black" stroke="black" points="203.71,-683.5 213.71,-680 203.71,-676.5 203.71,-683.5"/>
</g>
<!-- M34_q0 -->
<g id="node27" class="node">
<title>M34_q0</title>
<ellipse fill="none" stroke="black" cx="70.19" cy="-738" rx="51.99" ry="18"/>
<text text-anchor="middle" x="70.19" y="-734.3" font-family="Times,serif" font-size="14.00">M.3.4/q0</text>
</g>
<!-- M34_qLDOE34 -->
<g id="node28" class="node">
<title>M34_qLDOE34</title>
<ellipse fill="none" stroke="black" cx="285.38" cy="-738" rx="85.29" ry="18"/>
<text text-anchor="middle" x="285.38" y="-734.3" font-family="Times,serif" font-size="14.00">M.3.4/qLDOE34</text>
</g>
<!-- M34_q0&#45;&gt;M34_qLDOE34 -->
<g id="edge17" class="edge">
<title>M34_q0&#45;&gt;M34_qLDOE34</title>
<path fill="none" stroke="black" d="M122.26,-738C142.54,-738 166.54,-738 189.77,-738"/>
<polygon fill="black" stroke="black" points="190.02,-741.5 200.02,-738 190.02,-734.5 190.02,-741.5"/>
</g>
</g>
</svg>
