<?xml version="1.0" encoding="UTF-8" standalone="no"?>
<!DOCTYPE svg PUBLIC "-//W3C//DTD SVG 1.1//EN"
 "http://www.w3.org/Graphics/SVG/1.1/DTD/svg11.dtd">
<!-- Generated by graphviz version 2.43.0 (0)
 -->
<!-- Title: ldoe_lr0 Pages: 1 -->
<svg width="479pt" height="1292pt"
 viewBox="0.00 0.00 478.69 1291.65" xmlns="http://www.w3.org/2000/svg" xmlns:xlink="http://www.w3.org/1999/xlink">
<g id="graph0" class="graph" transform="scale(1 1) rotate(0) translate(4 1287.65)">
<title>ldoe_lr0</title>
<polygon fill="white" stroke="transparent" points="-4,4 -4,-1287.65 474.69,-1287.65 474.69,4 -4,4"/>
<!-- G05_q0 -->
<g id="node1" class="node">
<title>G05_q0</title>
<ellipse fill="none" stroke="black" cx="202.84" cy="-1246.17" rx="103.48" ry="37.45"/>
<text text-anchor="middle" x="202.84" y="-1257.47" font-family="Times,serif" font-size="14.00">G·0·5: ● S·0·5.</text>
<text text-anchor="middle" x="202.84" y="-1242.47" font-family="Times,serif" font-size="14.00">S·0·5: ● A·0·5.</text>
<text text-anchor="middle" x="202.84" y="-1227.47" font-family="Times,serif" font-size="14.00">A·0·5: ● &#39;a&#39;, B·1·5.</text>
</g>
<!-- A05_lita -->
<g id="node2" class="node">
<title>A05_lita</title>
<ellipse fill="none" stroke="black" cx="202.84" cy="-1120.22" rx="140.93" ry="37.45"/>
<text text-anchor="middle" x="202.84" y="-1131.52" font-family="Times,serif" font-size="14.00">A·0·5: &#39;a&#39; ●, B·1·5.</text>
<text text-anchor="middle" x="202.84" y="-1116.52" font-family="Times,serif" font-size="14.00">B·1·5: ● LDOE·1·2, A·2·5.</text>
<text text-anchor="middle" x="202.84" y="-1101.52" font-family="Times,serif" font-size="14.00">LDOE·1·2: ● M·1·2.</text>
</g>
<!-- G05_q0&#45;&gt;A05_lita -->
<g id="edge1" class="edge">
<title>G05_q0&#45;&gt;A05_lita</title>
<path fill="none" stroke="black" d="M202.84,-1208.65C202.84,-1195.9 202.84,-1181.42 202.84,-1167.95"/>
<polygon fill="black" stroke="black" points="206.34,-1167.9 202.84,-1157.9 199.34,-1167.9 206.34,-1167.9"/>
<text text-anchor="middle" x="207.34" y="-1179.49" font-family="Times,serif" font-size="14.00">a</text>
</g>
<!-- M12_q00 -->
<g id="node3" class="node">
<title>M12_q00</title>
<ellipse fill="none" stroke="black" cx="202.84" cy="-889.52" rx="143.59" ry="37.45"/>
<text text-anchor="middle" x="202.84" y="-900.82" font-family="Times,serif" font-size="14.00">M·1·2: &#160;● &#39;m&#39;.</text>
<text text-anchor="middle" x="202.84" y="-885.82" font-family="Times,serif" font-size="14.00">LDOE·1·2: M·1·2 ● .</text>
<text text-anchor="middle" x="202.84" y="-870.82" font-family="Times,serif" font-size="14.00">B·1·5: LDOE·1·2 ● , A·2·5.</text>
</g>
<!-- A05_lita&#45;&gt;M12_q00 -->
<g id="edge2" class="edge">
<title>A05_lita&#45;&gt;M12_q00</title>
<path fill="none" stroke="black" d="M199.26,-1082.65C197.9,-1066.99 196.51,-1048.48 195.84,-1031.74 194.89,-1007.87 194.89,-1001.86 195.84,-978 196.37,-964.79 197.35,-950.48 198.4,-937.33"/>
<polygon fill="black" stroke="black" points="201.92,-937.34 199.26,-927.09 194.94,-936.76 201.92,-937.34"/>
<text text-anchor="middle" x="200.84" y="-1001.17" font-family="Times,serif" font-size="14.00" fill="red">0</text>
</g>
<!-- M12_q01 -->
<g id="node4" class="node">
<title>M12_q01</title>
<ellipse fill="none" stroke="black" cx="328.84" cy="-1004.87" rx="113.69" ry="26.74"/>
<text text-anchor="middle" x="328.84" y="-1008.67" font-family="Times,serif" font-size="14.00">M·1·2: &#160;● LDOE·1·2.</text>
<text text-anchor="middle" x="328.84" y="-993.67" font-family="Times,serif" font-size="14.00">LDOE·1·2: ● M·1·2.</text>
</g>
<!-- A05_lita&#45;&gt;M12_q01 -->
<g id="edge3" class="edge">
<title>A05_lita&#45;&gt;M12_q01</title>
<path fill="none" stroke="black" d="M242.02,-1083.97C258.41,-1069.23 277.32,-1052.22 293.3,-1037.84"/>
<polygon fill="black" stroke="black" points="295.8,-1040.31 300.89,-1031.02 291.12,-1035.1 295.8,-1040.31"/>
<text text-anchor="middle" x="281.84" y="-1053.54" font-family="Times,serif" font-size="14.00" fill="red">1</text>
</g>
<!-- M12_litm -->
<g id="node5" class="node">
<title>M12_litm</title>
<ellipse fill="none" stroke="black" cx="202.84" cy="-742.36" rx="143.59" ry="58.88"/>
<text text-anchor="middle" x="202.84" y="-768.66" font-family="Times,serif" font-size="14.00">M·1·2: &#39;m&#39; ● .</text>
<text text-anchor="middle" x="202.84" y="-753.66" font-family="Times,serif" font-size="14.00">LDOE·1·2: M·1·2 ● .</text>
<text text-anchor="middle" x="202.84" y="-738.66" font-family="Times,serif" font-size="14.00">M·1·2: LDOE·1·2 ● .</text>
<text text-anchor="middle" x="202.84" y="-723.66" font-family="Times,serif" font-size="14.00">B·1·5: LDOE·1·2 ● , A·2·5.</text>
<text text-anchor="middle" x="202.84" y="-708.66" font-family="Times,serif" font-size="14.00">A·2·5: ● &#39;a&#39;, B·3·5.</text>
</g>
<!-- M12_q00&#45;&gt;M12_litm -->
<g id="edge6" class="edge">
<title>M12_q00&#45;&gt;M12_litm</title>
<path fill="none" stroke="black" d="M202.84,-851.89C202.84,-839.52 202.84,-825.29 202.84,-811.29"/>
<polygon fill="black" stroke="black" points="206.34,-811.17 202.84,-801.17 199.34,-811.17 206.34,-811.17"/>
<text text-anchor="middle" x="209.84" y="-822.85" font-family="Times,serif" font-size="14.00">m</text>
</g>
<!-- M12_q01&#45;&gt;M12_q00 -->
<g id="edge4" class="edge">
<title>M12_q01&#45;&gt;M12_q00</title>
<path fill="none" stroke="black" d="M300.88,-978.71C285.92,-965.25 267.09,-948.31 249.94,-932.89"/>
<polygon fill="black" stroke="black" points="251.97,-930.01 242.2,-925.92 247.29,-935.21 251.97,-930.01"/>
<text text-anchor="middle" x="281.84" y="-948.8" font-family="Times,serif" font-size="14.00" fill="red">0</text>
</g>
<!-- M12_q01&#45;&gt;M12_q01 -->
<g id="edge5" class="edge">
<title>M12_q01&#45;&gt;M12_q01</title>
<path fill="none" stroke="black" d="M436.7,-1013.49C451.11,-1012.03 460.69,-1009.16 460.69,-1004.87 460.69,-1001.68 455.41,-999.28 446.8,-997.66"/>
<polygon fill="black" stroke="black" points="447.09,-994.16 436.7,-996.25 446.12,-1001.09 447.09,-994.16"/>
<text text-anchor="middle" x="465.69" y="-1001.17" font-family="Times,serif" font-size="14.00" fill="red">1</text>
</g>
<!-- A25_lita -->
<g id="node6" class="node">
<title>A25_lita</title>
<ellipse fill="none" stroke="black" cx="202.84" cy="-605.8" rx="143.59" ry="26.74"/>
<text text-anchor="middle" x="202.84" y="-609.6" font-family="Times,serif" font-size="14.00">A·2·5: &#39;a&#39; ● , B·3·5.</text>
<text text-anchor="middle" x="202.84" y="-594.6" font-family="Times,serif" font-size="14.00">B·3·5: &#160;● LDOE·3·4, A·4·5.</text>
</g>
<!-- M12_litm&#45;&gt;A25_lita -->
<g id="edge7" class="edge">
<title>M12_litm&#45;&gt;A25_lita</title>
<path fill="none" stroke="black" d="M202.84,-683.51C202.84,-669.71 202.84,-655.37 202.84,-642.87"/>
<polygon fill="black" stroke="black" points="206.34,-642.86 202.84,-632.86 199.34,-642.86 206.34,-642.86"/>
<text text-anchor="middle" x="207.34" y="-654.47" font-family="Times,serif" font-size="14.00">a</text>
</g>
<!-- LDOE34_q00 -->
<g id="node7" class="node">
<title>LDOE34_q00</title>
<ellipse fill="none" stroke="black" cx="113.84" cy="-501.06" rx="113.69" ry="26.74"/>
<text text-anchor="middle" x="113.84" y="-504.86" font-family="Times,serif" font-size="14.00">LDOE·3·4: ● M·3·4.</text>
<text text-anchor="middle" x="113.84" y="-489.86" font-family="Times,serif" font-size="14.00">M·3·4: &#160;● LDOE·3·4.</text>
</g>
<!-- A25_lita&#45;&gt;LDOE34_q00 -->
<g id="edge8" class="edge">
<title>A25_lita&#45;&gt;LDOE34_q00</title>
<path fill="none" stroke="black" d="M180.62,-579.14C169.15,-565.9 155.02,-549.59 142.72,-535.39"/>
<polygon fill="black" stroke="black" points="145.29,-533.01 136.1,-527.75 140,-537.6 145.29,-533.01"/>
<text text-anchor="middle" x="168.84" y="-549.73" font-family="Times,serif" font-size="14.00" fill="red">0</text>
</g>
<!-- LDOE34_q01 -->
<g id="node8" class="node">
<title>LDOE34_q01</title>
<ellipse fill="none" stroke="black" cx="202.84" cy="-405.19" rx="83.39" ry="18"/>
<text text-anchor="middle" x="202.84" y="-401.49" font-family="Times,serif" font-size="14.00">LDOE·3·4: ● &#39;l&#39;.</text>
</g>
<!-- A25_lita&#45;&gt;LDOE34_q01 -->
<g id="edge9" class="edge">
<title>A25_lita&#45;&gt;LDOE34_q01</title>
<path fill="none" stroke="black" d="M230.95,-579.19C243.94,-565.43 258,-547.33 264.84,-527.93 272.8,-505.4 273.47,-496.46 264.84,-474.19 258.15,-456.91 244.81,-441.34 232.2,-429.47"/>
<polygon fill="black" stroke="black" points="234.3,-426.65 224.52,-422.57 229.62,-431.86 234.3,-426.65"/>
<text text-anchor="middle" x="276.84" y="-497.36" font-family="Times,serif" font-size="14.00" fill="red">1</text>
</g>
<!-- LDOE34_q00&#45;&gt;LDOE34_q00 -->
<g id="edge10" class="edge">
<title>LDOE34_q00&#45;&gt;LDOE34_q00</title>
<path fill="none" stroke="black" d="M221.7,-509.68C236.11,-508.22 245.69,-505.35 245.69,-501.06 245.69,-497.87 240.41,-495.47 231.8,-493.84"/>
<polygon fill="black" stroke="black" points="232.09,-490.35 221.7,-492.43 231.12,-497.28 232.09,-490.35"/>
<text text-anchor="middle" x="250.69" y="-497.36" font-family="Times,serif" font-size="14.00" fill="red">0</text>
</g>
<!-- LDOE34_q00&#45;&gt;LDOE34_q01 -->
<g id="edge11" class="edge">
<title>LDOE34_q00&#45;&gt;LDOE34_q01</title>
<path fill="none" stroke="black" d="M138.16,-474.41C151.16,-460.7 167.06,-443.93 179.85,-430.44"/>
<polygon fill="black" stroke="black" points="182.63,-432.59 186.97,-422.93 177.55,-427.78 182.63,-432.59"/>
<text text-anchor="middle" x="174.84" y="-444.99" font-family="Times,serif" font-size="14.00" fill="red">1</text>
</g>
<!-- LDOE34_litl -->
<g id="node9" class="node">
<title>LDOE34_litl</title>
<ellipse fill="none" stroke="black" cx="202.84" cy="-277.5" rx="143.59" ry="58.88"/>
<text text-anchor="middle" x="202.84" y="-303.8" font-family="Times,serif" font-size="14.00">LDOE·3·4: &#39;l&#39; ● .</text>
<text text-anchor="middle" x="202.84" y="-288.8" font-family="Times,serif" font-size="14.00">B·3·5: LDOE·3·4 ● , A·4·5.</text>
<text text-anchor="middle" x="202.84" y="-273.8" font-family="Times,serif" font-size="14.00">M·3·4: LDOE·3·4 ● .</text>
<text text-anchor="middle" x="202.84" y="-258.8" font-family="Times,serif" font-size="14.00">LDOE·3·4: M·3·4 ● .</text>
<text text-anchor="middle" x="202.84" y="-243.8" font-family="Times,serif" font-size="14.00">A·4·5: &#160;● &#39;x&#39;.</text>
</g>
<!-- LDOE34_q01&#45;&gt;LDOE34_litl -->
<g id="edge12" class="edge">
<title>LDOE34_q01&#45;&gt;LDOE34_litl</title>
<path fill="none" stroke="black" d="M202.84,-386.97C202.84,-376.27 202.84,-361.73 202.84,-346.77"/>
<polygon fill="black" stroke="black" points="206.34,-346.39 202.84,-336.39 199.34,-346.39 206.34,-346.39"/>
<text text-anchor="middle" x="205.34" y="-357.99" font-family="Times,serif" font-size="14.00">l</text>
</g>
<!-- A45_litx -->
<g id="node10" class="node">
<title>A45_litx</title>
<ellipse fill="none" stroke="black" cx="202.84" cy="-83.9" rx="143.58" ry="79.81"/>
<ellipse fill="none" stroke="black" cx="202.84" cy="-83.9" rx="147.59" ry="83.81"/>
<text text-anchor="middle" x="202.84" y="-125.2" font-family="Times,serif" font-size="14.00">A·4·5: &#39;x&#39; ● .</text>
<text text-anchor="middle" x="202.84" y="-110.2" font-family="Times,serif" font-size="14.00">B·3·5: LDOE·3·4, A·4·5 ● .</text>
<text text-anchor="middle" x="202.84" y="-95.2" font-family="Times,serif" font-size="14.00">A·2·5: &#39;a&#39;, B·3·5 ● .</text>
<text text-anchor="middle" x="202.84" y="-80.2" font-family="Times,serif" font-size="14.00">B·1·5: LDOE·1·2, A·2·5 ● .</text>
<text text-anchor="middle" x="202.84" y="-65.2" font-family="Times,serif" font-size="14.00">A·0·5: &#39;a&#39;, B·1·5 ●.</text>
<text text-anchor="middle" x="202.84" y="-50.2" font-family="Times,serif" font-size="14.00">S·0·5: A·0·5 ●.</text>
<text text-anchor="middle" x="202.84" y="-35.2" font-family="Times,serif" font-size="14.00">G·0·5: S·0·5 ● .</text>
</g>
<!-- LDOE34_litl&#45;&gt;A45_litx -->
<g id="edge13" class="edge">
<title>LDOE34_litl&#45;&gt;A45_litx</title>
<path fill="none" stroke="black" d="M202.84,-218.75C202.84,-205.9 202.84,-191.95 202.84,-178.07"/>
<polygon fill="black" stroke="black" points="206.34,-178 202.84,-168 199.34,-178 206.34,-178"/>
<text text-anchor="middle" x="207.34" y="-189.61" font-family="Times,serif" font-size="14.00">x</text>
</g>
</g>
</svg>
