<?xml version="1.0" encoding="UTF-8" standalone="no"?>
<!DOCTYPE svg PUBLIC "-//W3C//DTD SVG 1.1//EN"
 "http://www.w3.org/Graphics/SVG/1.1/DTD/svg11.dtd">
<!-- Generated by graphviz version 2.43.0 (0)
 -->
<!-- Title: ldoe_sarg Pages: 1 -->
<svg width="1804pt" height="748pt"
 viewBox="0.00 0.00 1804.02 748.00" xmlns="http://www.w3.org/2000/svg" xmlns:xlink="http://www.w3.org/1999/xlink">
<g id="graph0" class="graph" transform="scale(1 1) rotate(0) translate(4 744)">
<title>ldoe_sarg</title>
<polygon fill="white" stroke="transparent" points="-4,4 -4,-744 1800.02,-744 1800.02,4 -4,4"/>
<!-- G05_q0 -->
<g id="node1" class="node">
<title>G05_q0</title>
<ellipse fill="none" stroke="black" cx="50.05" cy="-707" rx="50.09" ry="18"/>
<text text-anchor="middle" x="50.05" y="-703.3" font-family="Times,serif" font-size="14.00">G.0.5/q0</text>
</g>
<!-- G05_S05 -->
<g id="node2" class="node">
<title>G05_S05</title>
<ellipse fill="none" stroke="black" cx="1339.74" cy="-558" rx="67.68" ry="18"/>
<ellipse fill="none" stroke="black" cx="1339.74" cy="-558" rx="71.69" ry="22"/>
<text text-anchor="middle" x="1339.74" y="-554.3" font-family="Times,serif" font-size="14.00">G.0.5/qS.0.5</text>
</g>
<!-- G05_q0&#45;&gt;G05_S05 -->
<g id="edge1" class="edge">
<title>G05_q0&#45;&gt;G05_S05</title>
<path fill="none" stroke="black" stroke-dasharray="1,5" d="M97.39,-700.9C130.02,-697.13 174.75,-693 214.28,-693 214.28,-693 214.28,-693 956.6,-693 1023.56,-693 1202.16,-618.39 1289.4,-580.1"/>
<polygon fill="black" stroke="black" points="1290.82,-583.3 1298.56,-576.07 1288,-576.89 1290.82,-583.3"/>
</g>
<!-- S05_q0 -->
<g id="node3" class="node">
<title>S05_q0</title>
<ellipse fill="none" stroke="black" cx="50.05" cy="-635" rx="48.99" ry="18"/>
<text text-anchor="middle" x="50.05" y="-631.3" font-family="Times,serif" font-size="14.00">S.0.5/q0</text>
</g>
<!-- G05_q0&#45;&gt;S05_q0 -->
<g id="edge18" class="edge">
<title>G05_q0&#45;&gt;S05_q0</title>
<path fill="none" stroke="red" d="M50.05,-688.59C50.05,-680.94 50.05,-671.89 50.05,-663.43"/>
<polygon fill="red" stroke="red" points="53.55,-663.17 50.05,-653.17 46.55,-663.17 53.55,-663.17"/>
<text text-anchor="middle" x="39.55" y="-667.3" font-family="Times,serif" font-size="14.00">Push G.0.5/qS.0.5</text>
</g>
<!-- S05_A05 -->
<g id="node4" class="node">
<title>S05_A05</title>
<ellipse fill="none" stroke="black" cx="1339.74" cy="-638" rx="66.89" ry="18"/>
<ellipse fill="none" stroke="black" cx="1339.74" cy="-638" rx="70.89" ry="22"/>
<text text-anchor="middle" x="1339.74" y="-634.3" font-family="Times,serif" font-size="14.00">S.0.5/qA.0.5</text>
</g>
<!-- S05_q0&#45;&gt;S05_A05 -->
<g id="edge2" class="edge">
<title>S05_q0&#45;&gt;S05_A05</title>
<path fill="none" stroke="black" stroke-dasharray="1,5" d="M98.9,-636.34C131.43,-637.14 175.45,-638 214.28,-638 214.28,-638 214.28,-638 956.6,-638 1060.89,-638 1181.19,-638 1258.51,-638"/>
<polygon fill="black" stroke="black" points="1258.66,-641.5 1268.66,-638 1258.66,-634.5 1258.66,-641.5"/>
</g>
<!-- A05_q0 -->
<g id="node5" class="node">
<title>A05_q0</title>
<ellipse fill="none" stroke="black" cx="50.05" cy="-563" rx="49.29" ry="18"/>
<text text-anchor="middle" x="50.05" y="-559.3" font-family="Times,serif" font-size="14.00">A.0.5/q0</text>
</g>
<!-- S05_q0&#45;&gt;A05_q0 -->
<g id="edge20" class="edge">
<title>S05_q0&#45;&gt;A05_q0</title>
<path fill="none" stroke="red" d="M50.05,-616.59C50.05,-608.94 50.05,-599.89 50.05,-591.43"/>
<polygon fill="red" stroke="red" points="53.55,-591.17 50.05,-581.17 46.55,-591.17 53.55,-591.17"/>
<text text-anchor="middle" x="39.55" y="-595.3" font-family="Times,serif" font-size="14.00">Push S.0.5/qA.0.5</text>
</g>
<!-- S05_A05&#45;&gt;G05_S05 -->
<g id="edge19" class="edge">
<title>S05_A05&#45;&gt;G05_S05</title>
<path fill="none" stroke="red" d="M1339.74,-615.84C1339.74,-607.96 1339.74,-598.92 1339.74,-590.37"/>
<polygon fill="red" stroke="red" points="1343.24,-590.28 1339.74,-580.28 1336.24,-590.28 1343.24,-590.28"/>
<text text-anchor="middle" x="1329.24" y="-594.3" font-family="Times,serif" font-size="14.00">Pop G.0.5/qS.0.5</text>
</g>
<!-- A05_lita -->
<g id="node6" class="node">
<title>A05_lita</title>
<ellipse fill="none" stroke="black" cx="215.28" cy="-592" rx="64.19" ry="18"/>
<text text-anchor="middle" x="215.28" y="-588.3" font-family="Times,serif" font-size="14.00">A.0.5/q.lit.a</text>
</g>
<!-- A05_q0&#45;&gt;A05_lita -->
<g id="edge3" class="edge">
<title>A05_q0&#45;&gt;A05_lita</title>
<path fill="none" stroke="transparent" stroke-dasharray="1,5" d="M93.93,-571.49C101.95,-573.03 110.27,-574.59 118.09,-576 128.19,-577.82 138.9,-579.67 149.37,-581.45"/>
<polygon fill="transparent" stroke="transparent" points="148.86,-584.91 159.3,-583.11 150.02,-578.01 148.86,-584.91"/>
<text text-anchor="middle" x="122.59" y="-580.8" font-family="Times,serif" font-size="14.00" fill="#fffffe">a</text>
</g>
<!-- A05_q0&#45;&gt;A05_lita -->
<g id="edge22" class="edge">
<title>A05_q0&#45;&gt;A05_lita</title>
<path fill="none" stroke="red" d="M95.1,-555.52C105.64,-554.83 116.82,-555.02 127.09,-557 142.99,-560.07 159.67,-566.02 174.13,-572.16"/>
<polygon fill="red" stroke="red" points="172.72,-575.36 183.28,-576.19 175.54,-568.96 172.72,-575.36"/>
<text text-anchor="middle" x="122.59" y="-560.8" font-family="Times,serif" font-size="14.00">a</text>
</g>
<!-- A05_B15 -->
<g id="node7" class="node">
<title>A05_B15</title>
<ellipse fill="none" stroke="black" cx="1339.74" cy="-718" rx="67.68" ry="18"/>
<ellipse fill="none" stroke="black" cx="1339.74" cy="-718" rx="71.69" ry="22"/>
<text text-anchor="middle" x="1339.74" y="-714.3" font-family="Times,serif" font-size="14.00">A.0.5/qB.1.5</text>
</g>
<!-- A05_lita&#45;&gt;A05_B15 -->
<g id="edge4" class="edge">
<title>A05_lita&#45;&gt;A05_B15</title>
<path fill="none" stroke="black" stroke-dasharray="1,5" d="M279.79,-592.3C394,-593.5 641.44,-599.04 848.46,-624 1001.63,-642.47 1178.85,-680.71 1272.61,-702.29"/>
<polygon fill="black" stroke="black" points="1271.99,-705.74 1282.52,-704.58 1273.56,-698.92 1271.99,-705.74"/>
</g>
<!-- B15_q0 -->
<g id="node8" class="node">
<title>B15_q0</title>
<ellipse fill="none" stroke="black" cx="215.28" cy="-520" rx="50.09" ry="18"/>
<text text-anchor="middle" x="215.28" y="-516.3" font-family="Times,serif" font-size="14.00">B.1.5/q0</text>
</g>
<!-- A05_lita&#45;&gt;B15_q0 -->
<g id="edge23" class="edge">
<title>A05_lita&#45;&gt;B15_q0</title>
<path fill="none" stroke="red" d="M215.28,-573.59C215.28,-565.94 215.28,-556.89 215.28,-548.43"/>
<polygon fill="red" stroke="red" points="218.78,-548.17 215.28,-538.17 211.78,-548.17 218.78,-548.17"/>
<text text-anchor="middle" x="204.78" y="-552.3" font-family="Times,serif" font-size="14.00">Push A.0.5/qB.1.5</text>
</g>
<!-- A05_B15&#45;&gt;S05_A05 -->
<g id="edge21" class="edge">
<title>A05_B15&#45;&gt;S05_A05</title>
<path fill="none" stroke="red" d="M1339.74,-695.84C1339.74,-687.96 1339.74,-678.92 1339.74,-670.37"/>
<polygon fill="red" stroke="red" points="1343.24,-670.28 1339.74,-660.28 1336.24,-670.28 1343.24,-670.28"/>
<text text-anchor="middle" x="1329.24" y="-674.3" font-family="Times,serif" font-size="14.00">Pop S.0.5/qA.0.5</text>
</g>
<!-- B15_LDOE12 -->
<g id="node9" class="node">
<title>B15_LDOE12</title>
<ellipse fill="none" stroke="black" cx="955.6" cy="-542" rx="89.08" ry="18"/>
<text text-anchor="middle" x="955.6" y="-538.3" font-family="Times,serif" font-size="14.00">B.1.5/qLDOE.1.2</text>
</g>
<!-- B15_q0&#45;&gt;B15_LDOE12 -->
<g id="edge5" class="edge">
<title>B15_q0&#45;&gt;B15_LDOE12</title>
<path fill="none" stroke="black" stroke-dasharray="1,5" d="M265.3,-521.46C385.61,-525.05 697.28,-534.33 857.04,-539.09"/>
<polygon fill="black" stroke="black" points="857.24,-542.6 867.34,-539.4 857.45,-535.6 857.24,-542.6"/>
</g>
<!-- LDOE12_q0 -->
<g id="node11" class="node">
<title>LDOE12_q0</title>
<ellipse fill="none" stroke="black" cx="215.28" cy="-262" rx="70.39" ry="18"/>
<text text-anchor="middle" x="215.28" y="-258.3" font-family="Times,serif" font-size="14.00">LDOE.1.2/q0</text>
</g>
<!-- B15_q0&#45;&gt;LDOE12_q0 -->
<g id="edge25" class="edge">
<title>B15_q0&#45;&gt;LDOE12_q0</title>
<path fill="none" stroke="red" d="M215.28,-501.88C215.28,-457.58 215.28,-343.56 215.28,-290.25"/>
<polygon fill="red" stroke="red" points="218.78,-290.14 215.28,-280.14 211.78,-290.14 218.78,-290.14"/>
<text text-anchor="middle" x="204.78" y="-387.3" font-family="Times,serif" font-size="14.00">Push B.1.5/qLDOE.1.2</text>
</g>
<!-- B15_A25 -->
<g id="node10" class="node">
<title>B15_A25</title>
<ellipse fill="none" stroke="black" cx="1710.87" cy="-508" rx="67.68" ry="18"/>
<ellipse fill="none" stroke="black" cx="1710.87" cy="-508" rx="71.69" ry="22"/>
<text text-anchor="middle" x="1710.87" y="-504.3" font-family="Times,serif" font-size="14.00">B.1.5/qA.2.5</text>
</g>
<!-- B15_LDOE12&#45;&gt;B15_A25 -->
<g id="edge6" class="edge">
<title>B15_LDOE12&#45;&gt;B15_A25</title>
<path fill="none" stroke="black" stroke-dasharray="1,5" d="M1041.7,-537.32C1099.06,-534.23 1176.44,-530.17 1244.75,-527 1379.76,-520.73 1536.86,-514.54 1629.58,-511.01"/>
<polygon fill="black" stroke="black" points="1629.87,-514.5 1639.73,-510.62 1629.61,-507.5 1629.87,-514.5"/>
</g>
<!-- A25_q0 -->
<g id="node13" class="node">
<title>A25_q0</title>
<ellipse fill="none" stroke="black" cx="955.6" cy="-470" rx="49.29" ry="18"/>
<text text-anchor="middle" x="955.6" y="-466.3" font-family="Times,serif" font-size="14.00">A.2.5/q0</text>
</g>
<!-- B15_LDOE12&#45;&gt;A25_q0 -->
<g id="edge27" class="edge">
<title>B15_LDOE12&#45;&gt;A25_q0</title>
<path fill="none" stroke="red" d="M955.6,-523.59C955.6,-515.94 955.6,-506.89 955.6,-498.43"/>
<polygon fill="red" stroke="red" points="959.11,-498.17 955.6,-488.17 952.11,-498.17 959.11,-498.17"/>
<text text-anchor="middle" x="945.1" y="-502.3" font-family="Times,serif" font-size="14.00">Push B.1.5/qA.2.5</text>
</g>
<!-- B15_A25&#45;&gt;A05_B15 -->
<g id="edge24" class="edge">
<title>B15_A25&#45;&gt;A05_B15</title>
<path fill="none" stroke="red" d="M1677.56,-527.6C1626.44,-558.45 1523.61,-619.87 1434.73,-669 1419.39,-677.48 1402.46,-686.43 1387.24,-694.33"/>
<polygon fill="red" stroke="red" points="1385.29,-691.4 1378.01,-699.1 1388.51,-697.62 1385.29,-691.4"/>
<text text-anchor="middle" x="1530.23" y="-659.8" font-family="Times,serif" font-size="14.00">Pop A.0.5/qB.1.5</text>
</g>
<!-- LDOE12_M12 -->
<g id="node12" class="node">
<title>LDOE12_M12</title>
<ellipse fill="none" stroke="black" cx="580.47" cy="-106" rx="90.98" ry="18"/>
<ellipse fill="none" stroke="black" cx="580.47" cy="-106" rx="94.98" ry="22"/>
<text text-anchor="middle" x="580.47" y="-102.3" font-family="Times,serif" font-size="14.00">LDOE.1.2/qM.1.2</text>
</g>
<!-- LDOE12_q0&#45;&gt;LDOE12_M12 -->
<g id="edge7" class="edge">
<title>LDOE12_q0&#45;&gt;LDOE12_M12</title>
<path fill="none" stroke="black" stroke-dasharray="1,5" d="M252.1,-246.62C315.94,-219.19 449.75,-161.72 525.03,-129.38"/>
<polygon fill="black" stroke="black" points="526.55,-132.54 534.36,-125.38 523.79,-126.11 526.55,-132.54"/>
</g>
<!-- M12_q0 -->
<g id="node16" class="node">
<title>M12_q0</title>
<ellipse fill="none" stroke="black" cx="580.47" cy="-262" rx="51.99" ry="18"/>
<text text-anchor="middle" x="580.47" y="-258.3" font-family="Times,serif" font-size="14.00">M.1.2/q0</text>
</g>
<!-- LDOE12_q0&#45;&gt;M12_q0 -->
<g id="edge29" class="edge">
<title>LDOE12_q0&#45;&gt;M12_q0</title>
<path fill="none" stroke="red" d="M267.19,-249.68C279.03,-247.32 291.64,-245.21 303.48,-244 375.99,-236.59 394.82,-238.2 467.48,-244 486.36,-245.51 506.86,-248.42 525.1,-251.48"/>
<polygon fill="red" stroke="red" points="524.53,-254.93 534.98,-253.18 525.72,-248.03 524.53,-254.93"/>
<text text-anchor="middle" x="385.48" y="-247.8" font-family="Times,serif" font-size="14.00">Push LDOE.1.2/qM.1.2</text>
</g>
<!-- LDOE12_M12&#45;&gt;B15_LDOE12 -->
<g id="edge26" class="edge">
<title>LDOE12_M12&#45;&gt;B15_LDOE12</title>
<path fill="none" stroke="red" d="M630.39,-124.83C646.07,-132.51 662.66,-142.56 675.46,-155 800.33,-276.32 741.08,-376.21 866.46,-497 876.72,-506.88 889.57,-515.08 902.27,-521.65"/>
<polygon fill="red" stroke="red" points="900.92,-524.89 911.44,-526.15 904,-518.6 900.92,-524.89"/>
<text text-anchor="middle" x="770.96" y="-479.8" font-family="Times,serif" font-size="14.00">Pop B.1.5/qLDOE.1.2</text>
</g>
<!-- M12_LDOE12 -->
<g id="node18" class="node">
<title>M12_LDOE12</title>
<ellipse fill="none" stroke="black" cx="955.6" cy="-68" rx="85.28" ry="18"/>
<ellipse fill="none" stroke="black" cx="955.6" cy="-68" rx="89.29" ry="22"/>
<text text-anchor="middle" x="955.6" y="-64.3" font-family="Times,serif" font-size="14.00">M.1.2/qLDOE12</text>
</g>
<!-- LDOE12_M12&#45;&gt;M12_LDOE12 -->
<g id="edge37" class="edge">
<title>LDOE12_M12&#45;&gt;M12_LDOE12</title>
<path fill="none" stroke="red" d="M624.1,-86.39C644.6,-78 669.81,-69.19 693.46,-65 749.22,-55.11 812.73,-55.59 863.16,-58.67"/>
<polygon fill="red" stroke="red" points="863.18,-62.18 873.39,-59.34 863.64,-55.19 863.18,-62.18"/>
<text text-anchor="middle" x="770.96" y="-68.8" font-family="Times,serif" font-size="14.00">Pop M.1.2/qLDOE.1.2</text>
</g>
<!-- A25_lita -->
<g id="node14" class="node">
<title>A25_lita</title>
<ellipse fill="none" stroke="black" cx="955.6" cy="-398" rx="67.69" ry="18"/>
<text text-anchor="middle" x="955.6" y="-394.3" font-family="Times,serif" font-size="14.00">A.2.5/q_lit_a</text>
</g>
<!-- A25_q0&#45;&gt;A25_lita -->
<g id="edge8" class="edge">
<title>A25_q0&#45;&gt;A25_lita</title>
<path fill="none" stroke="transparent" stroke-dasharray="1,5" d="M955.6,-451.59C955.6,-443.94 955.6,-434.89 955.6,-426.43"/>
<polygon fill="transparent" stroke="transparent" points="959.11,-426.17 955.6,-416.17 952.11,-426.17 959.11,-426.17"/>
<text text-anchor="middle" x="945.1" y="-430.3" font-family="Times,serif" font-size="14.00" fill="#fffffe">a</text>
</g>
<!-- A25_q0&#45;&gt;A25_lita -->
<g id="edge32" class="edge">
<title>A25_q0&#45;&gt;A25_lita</title>
<path fill="none" stroke="red" d="M967.78,-452.38C970.18,-448.03 972.34,-443.25 973.6,-438.5 974.79,-434.03 974.43,-429.42 973.18,-424.99"/>
<polygon fill="red" stroke="red" points="976.37,-423.57 969.28,-415.7 969.92,-426.27 976.37,-423.57"/>
<text text-anchor="middle" x="966.1" y="-430.3" font-family="Times,serif" font-size="14.00">a</text>
</g>
<!-- A25_B35 -->
<g id="node15" class="node">
<title>A25_B35</title>
<ellipse fill="none" stroke="black" cx="1339.74" cy="-18" rx="67.69" ry="18"/>
<text text-anchor="middle" x="1339.74" y="-14.3" font-family="Times,serif" font-size="14.00">A.2.5/qB.3.5</text>
</g>
<!-- A25_lita&#45;&gt;A25_B35 -->
<g id="edge9" class="edge">
<title>A25_lita&#45;&gt;A25_B35</title>
<path fill="none" stroke="black" stroke-dasharray="1,5" d="M993.36,-413.08C1051.36,-434.16 1163.95,-463.57 1226.75,-404 1254.27,-377.89 1223.69,-94.56 1244.75,-63 1253.32,-50.16 1266.61,-40.88 1280.53,-34.22"/>
<polygon fill="black" stroke="black" points="1281.96,-37.41 1289.73,-30.2 1279.16,-31 1281.96,-37.41"/>
</g>
<!-- B35_q0 -->
<g id="node19" class="node">
<title>B35_q0</title>
<ellipse fill="none" stroke="black" cx="955.6" cy="-326" rx="50.09" ry="18"/>
<text text-anchor="middle" x="955.6" y="-322.3" font-family="Times,serif" font-size="14.00">B.3.5/q0</text>
</g>
<!-- A25_lita&#45;&gt;B35_q0 -->
<g id="edge33" class="edge">
<title>A25_lita&#45;&gt;B35_q0</title>
<path fill="none" stroke="red" d="M955.6,-379.59C955.6,-371.94 955.6,-362.89 955.6,-354.43"/>
<polygon fill="red" stroke="red" points="959.11,-354.17 955.6,-344.17 952.11,-354.17 959.11,-354.17"/>
<text text-anchor="middle" x="945.1" y="-358.3" font-family="Times,serif" font-size="14.00">Push A.2.5/qB.3.5</text>
</g>
<!-- A25_B35&#45;&gt;B15_A25 -->
<g id="edge28" class="edge">
<title>A25_B35&#45;&gt;B15_A25</title>
<path fill="none" stroke="red" d="M1380.34,-32.44C1441.11,-56.9 1555.75,-112.73 1607.73,-202 1632.88,-245.19 1611.72,-265.03 1625.73,-313 1643.31,-373.2 1674.67,-439.48 1693.74,-477.19"/>
<polygon fill="red" stroke="red" points="1690.65,-478.83 1698.31,-486.14 1696.88,-475.65 1690.65,-478.83"/>
<text text-anchor="middle" x="1530.23" y="-205.8" font-family="Times,serif" font-size="14.00">Pop B.1.5/qA.2.5</text>
</g>
<!-- M12_q0&#45;&gt;LDOE12_q0 -->
<g id="edge36" class="edge">
<title>M12_q0&#45;&gt;LDOE12_q0</title>
<path fill="none" stroke="red" d="M528.27,-262C467.88,-262 366.78,-262 296.08,-262"/>
<polygon fill="red" stroke="red" points="295.88,-258.5 285.88,-262 295.88,-265.5 295.88,-258.5"/>
<text text-anchor="middle" x="385.48" y="-265.8" font-family="Times,serif" font-size="14.00">Push M.1.2/qLDOE.1.2</text>
</g>
<!-- M12_litm -->
<g id="node17" class="node">
<title>M12_litm</title>
<ellipse fill="none" stroke="black" cx="580.47" cy="-186" rx="73.39" ry="18"/>
<ellipse fill="none" stroke="black" cx="580.47" cy="-186" rx="77.39" ry="22"/>
<text text-anchor="middle" x="580.47" y="-182.3" font-family="Times,serif" font-size="14.00">M.1.2/q_lit_m</text>
</g>
<!-- M12_q0&#45;&gt;M12_litm -->
<g id="edge10" class="edge">
<title>M12_q0&#45;&gt;M12_litm</title>
<path fill="none" stroke="transparent" stroke-dasharray="1,5" d="M580.47,-243.6C580.47,-236.07 580.47,-227.11 580.47,-218.54"/>
<polygon fill="transparent" stroke="transparent" points="583.97,-218.39 580.47,-208.39 576.97,-218.39 583.97,-218.39"/>
<text text-anchor="middle" x="569.97" y="-222.3" font-family="Times,serif" font-size="14.00" fill="#fffffe">m</text>
</g>
<!-- M12_q0&#45;&gt;M12_litm -->
<g id="edge35" class="edge">
<title>M12_q0&#45;&gt;M12_litm</title>
<path fill="none" stroke="red" d="M593.55,-244.32C595.58,-240.74 597.37,-236.88 598.47,-233 599.93,-227.88 599.68,-222.53 598.44,-217.36"/>
<polygon fill="red" stroke="red" points="601.67,-216 595.05,-207.73 595.07,-218.32 601.67,-216"/>
<text text-anchor="middle" x="590.97" y="-222.3" font-family="Times,serif" font-size="14.00">m</text>
</g>
<!-- M12_q0&#45;&gt;M12_LDOE12 -->
<g id="edge11" class="edge">
<title>M12_q0&#45;&gt;M12_LDOE12</title>
<path fill="none" stroke="black" stroke-dasharray="1,5" d="M632.73,-262.12C693.24,-259.34 792.67,-245.11 848.46,-185 875.03,-156.38 840.73,-128.37 866.46,-99 870.2,-94.73 874.57,-91.05 879.32,-87.87"/>
<polygon fill="black" stroke="black" points="881.35,-90.74 888.23,-82.69 877.83,-84.69 881.35,-90.74"/>
</g>
<!-- M12_litm&#45;&gt;LDOE12_M12 -->
<g id="edge30" class="edge">
<title>M12_litm&#45;&gt;LDOE12_M12</title>
<path fill="none" stroke="red" d="M580.47,-163.84C580.47,-155.96 580.47,-146.92 580.47,-138.37"/>
<polygon fill="red" stroke="red" points="583.97,-138.28 580.47,-128.28 576.97,-138.28 583.97,-138.28"/>
<text text-anchor="middle" x="569.97" y="-142.3" font-family="Times,serif" font-size="14.00">Pop LDOE.1.2/qM.1.2</text>
</g>
<!-- M12_LDOE12&#45;&gt;LDOE12_M12 -->
<g id="edge31" class="edge">
<title>M12_LDOE12&#45;&gt;LDOE12_M12</title>
<path fill="none" stroke="red" d="M880.17,-79.87C869.54,-81.37 858.74,-82.8 848.46,-84 793.68,-90.38 732.36,-95.57 682.32,-99.3"/>
<polygon fill="red" stroke="red" points="681.86,-95.83 672.14,-100.05 682.37,-102.81 681.86,-95.83"/>
<text text-anchor="middle" x="770.96" y="-102.8" font-family="Times,serif" font-size="14.00">Pop LDOE.1.2/qM.1.2</text>
</g>
<!-- B35_LDOE34 -->
<g id="node20" class="node">
<title>B35_LDOE34</title>
<ellipse fill="none" stroke="black" cx="955.6" cy="-198" rx="89.08" ry="18"/>
<text text-anchor="middle" x="955.6" y="-194.3" font-family="Times,serif" font-size="14.00">B.3.5/qLDOE.3.4</text>
</g>
<!-- B35_q0&#45;&gt;B35_LDOE34 -->
<g id="edge12" class="edge">
<title>B35_q0&#45;&gt;B35_LDOE34</title>
<path fill="none" stroke="black" stroke-dasharray="1,5" d="M907.96,-320.4C840.58,-310.57 729.95,-286.31 770.96,-236 792.14,-210.02 825.92,-198.75 858.83,-194.57"/>
<polygon fill="black" stroke="black" points="859.43,-198.03 869,-193.49 858.69,-191.06 859.43,-198.03"/>
</g>
<!-- LDOE34_q0 -->
<g id="node22" class="node">
<title>LDOE34_q0</title>
<ellipse fill="none" stroke="black" cx="955.6" cy="-254" rx="70.39" ry="18"/>
<text text-anchor="middle" x="955.6" y="-250.3" font-family="Times,serif" font-size="14.00">LDOE.3.4/q0</text>
</g>
<!-- B35_q0&#45;&gt;LDOE34_q0 -->
<g id="edge38" class="edge">
<title>B35_q0&#45;&gt;LDOE34_q0</title>
<path fill="none" stroke="red" d="M955.6,-307.59C955.6,-299.94 955.6,-290.89 955.6,-282.43"/>
<polygon fill="red" stroke="red" points="959.11,-282.17 955.6,-272.17 952.11,-282.17 959.11,-282.17"/>
<text text-anchor="middle" x="945.1" y="-286.3" font-family="Times,serif" font-size="14.00">Push B.3.5/qLDOE.3.4</text>
</g>
<!-- B35_A45 -->
<g id="node21" class="node">
<title>B35_A45</title>
<ellipse fill="none" stroke="black" cx="1339.74" cy="-94" rx="67.68" ry="18"/>
<ellipse fill="none" stroke="black" cx="1339.74" cy="-94" rx="71.69" ry="22"/>
<text text-anchor="middle" x="1339.74" y="-90.3" font-family="Times,serif" font-size="14.00">B.3.5/qA.4.5</text>
</g>
<!-- B35_LDOE34&#45;&gt;B35_A45 -->
<g id="edge13" class="edge">
<title>B35_LDOE34&#45;&gt;B35_A45</title>
<path fill="none" stroke="black" stroke-dasharray="1,5" d="M991.28,-181.31C1011.68,-172.08 1038.22,-161.08 1062.75,-154 1133.79,-133.49 1154.65,-142.4 1226.75,-126 1243.89,-122.1 1262.3,-117.16 1279.15,-112.33"/>
<polygon fill="black" stroke="black" points="1280.24,-115.66 1288.87,-109.51 1278.29,-108.94 1280.24,-115.66"/>
</g>
<!-- A45_q0 -->
<g id="node25" class="node">
<title>A45_q0</title>
<ellipse fill="none" stroke="black" cx="955.6" cy="-126" rx="49.29" ry="18"/>
<text text-anchor="middle" x="955.6" y="-122.3" font-family="Times,serif" font-size="14.00">A.4.5/q0</text>
</g>
<!-- B35_LDOE34&#45;&gt;A45_q0 -->
<g id="edge41" class="edge">
<title>B35_LDOE34&#45;&gt;A45_q0</title>
<path fill="none" stroke="red" d="M955.6,-179.59C955.6,-171.94 955.6,-162.89 955.6,-154.43"/>
<polygon fill="red" stroke="red" points="959.11,-154.17 955.6,-144.17 952.11,-154.17 959.11,-154.17"/>
<text text-anchor="middle" x="945.1" y="-158.3" font-family="Times,serif" font-size="14.00">Push B.3.5/qA.4.5</text>
</g>
<!-- B35_A45&#45;&gt;A25_B35 -->
<g id="edge34" class="edge">
<title>B35_A45&#45;&gt;A25_B35</title>
<path fill="none" stroke="red" d="M1339.74,-71.77C1339.74,-63.77 1339.74,-54.64 1339.74,-46.2"/>
<polygon fill="red" stroke="red" points="1343.24,-46.01 1339.74,-36.01 1336.24,-46.01 1343.24,-46.01"/>
<text text-anchor="middle" x="1329.24" y="-50.3" font-family="Times,serif" font-size="14.00">Pop A.2.5/qB.3.5</text>
</g>
<!-- LDOE34_M34 -->
<g id="node23" class="node">
<title>LDOE34_M34</title>
<ellipse fill="none" stroke="black" cx="1339.74" cy="-236" rx="90.98" ry="18"/>
<ellipse fill="none" stroke="black" cx="1339.74" cy="-236" rx="94.98" ry="22"/>
<text text-anchor="middle" x="1339.74" y="-232.3" font-family="Times,serif" font-size="14.00">LDOE.3.4/qM.3.4</text>
</g>
<!-- LDOE34_q0&#45;&gt;LDOE34_M34 -->
<g id="edge14" class="edge">
<title>LDOE34_q0&#45;&gt;LDOE34_M34</title>
<path fill="none" stroke="black" stroke-dasharray="1,5" d="M1024.92,-250.78C1083.73,-248.01 1169.44,-243.97 1236.44,-240.82"/>
<polygon fill="black" stroke="black" points="1236.78,-244.31 1246.6,-240.34 1236.45,-237.31 1236.78,-244.31"/>
</g>
<!-- LDOE34_litl -->
<g id="node24" class="node">
<title>LDOE34_litl</title>
<ellipse fill="none" stroke="black" cx="1339.74" cy="-298" rx="85.59" ry="18"/>
<ellipse fill="none" stroke="black" cx="1339.74" cy="-298" rx="89.59" ry="22"/>
<text text-anchor="middle" x="1339.74" y="-294.3" font-family="Times,serif" font-size="14.00">LDOE.3.4/q_lit_l</text>
</g>
<!-- LDOE34_q0&#45;&gt;LDOE34_litl -->
<g id="edge15" class="edge">
<title>LDOE34_q0&#45;&gt;LDOE34_litl</title>
<path fill="none" stroke="transparent" stroke-dasharray="1,5" d="M993.22,-269.44C1013.35,-277.15 1039,-285.73 1062.75,-290 1121.36,-300.54 1188.09,-302.74 1241.25,-302.2"/>
<polygon fill="transparent" stroke="transparent" points="1241.4,-305.7 1251.35,-302.07 1241.31,-298.7 1241.4,-305.7"/>
<text text-anchor="middle" x="1144.75" y="-306.8" font-family="Times,serif" font-size="14.00" fill="#fffffe">l</text>
</g>
<!-- LDOE34_q0&#45;&gt;LDOE34_litl -->
<g id="edge45" class="edge">
<title>LDOE34_q0&#45;&gt;LDOE34_litl</title>
<path fill="none" stroke="red" d="M1025.8,-255.05C1080.58,-256.68 1158.91,-260.77 1226.75,-271 1240.59,-273.09 1255.24,-276.05 1269.22,-279.26"/>
<polygon fill="red" stroke="red" points="1268.72,-282.74 1279.25,-281.63 1270.33,-275.93 1268.72,-282.74"/>
<text text-anchor="middle" x="1144.75" y="-274.8" font-family="Times,serif" font-size="14.00">l</text>
</g>
<!-- M34_q0 -->
<g id="node27" class="node">
<title>M34_q0</title>
<ellipse fill="none" stroke="black" cx="1339.74" cy="-356" rx="51.99" ry="18"/>
<text text-anchor="middle" x="1339.74" y="-352.3" font-family="Times,serif" font-size="14.00">M.3.4/q0</text>
</g>
<!-- LDOE34_q0&#45;&gt;M34_q0 -->
<g id="edge43" class="edge">
<title>LDOE34_q0&#45;&gt;M34_q0</title>
<path fill="none" stroke="red" d="M994.8,-269.08C1011.17,-276.62 1029.9,-286.76 1044.75,-299 1054.76,-307.26 1051.45,-315.61 1062.75,-322 1098.4,-342.16 1208.01,-350.53 1277.89,-353.89"/>
<polygon fill="red" stroke="red" points="1277.75,-357.38 1287.9,-354.34 1278.08,-350.39 1277.75,-357.38"/>
<text text-anchor="middle" x="1144.75" y="-354.8" font-family="Times,serif" font-size="14.00">Push LDOE.3.4/qM.3.4</text>
</g>
<!-- LDOE34_M34&#45;&gt;B35_LDOE34 -->
<g id="edge39" class="edge">
<title>LDOE34_M34&#45;&gt;B35_LDOE34</title>
<path fill="none" stroke="red" d="M1271.41,-220.53C1261.86,-216.48 1252.62,-211.39 1244.75,-205 1232.38,-194.96 1240.55,-181.95 1226.75,-174 1157.31,-134.03 1060.84,-157.79 1003.94,-178.23"/>
<polygon fill="red" stroke="red" points="1002.64,-174.98 994.47,-181.73 1005.07,-181.54 1002.64,-174.98"/>
<text text-anchor="middle" x="1144.75" y="-177.8" font-family="Times,serif" font-size="14.00">Pop B.3.5/qLDOE.3.4</text>
</g>
<!-- M34_LDOE34 -->
<g id="node28" class="node">
<title>M34_LDOE34</title>
<ellipse fill="none" stroke="black" cx="1710.87" cy="-286" rx="85.29" ry="18"/>
<text text-anchor="middle" x="1710.87" y="-282.3" font-family="Times,serif" font-size="14.00">M.3.4/qLDOE34</text>
</g>
<!-- LDOE34_M34&#45;&gt;M34_LDOE34 -->
<g id="edge48" class="edge">
<title>LDOE34_M34&#45;&gt;M34_LDOE34</title>
<path fill="none" stroke="red" d="M1420.22,-224.3C1473.96,-218.93 1546.09,-216.71 1607.73,-232 1632.27,-238.09 1657.4,-251.27 1676.6,-263.09"/>
<polygon fill="red" stroke="red" points="1674.93,-266.17 1685.25,-268.56 1678.67,-260.26 1674.93,-266.17"/>
<text text-anchor="middle" x="1530.23" y="-235.8" font-family="Times,serif" font-size="14.00">Pop M.3.4/qLDOE.3.4</text>
</g>
<!-- LDOE34_litl&#45;&gt;B35_LDOE34 -->
<g id="edge40" class="edge">
<title>LDOE34_litl&#45;&gt;B35_LDOE34</title>
<path fill="none" stroke="red" d="M1273.53,-283.13C1263.26,-278.97 1253.25,-273.7 1244.75,-267 1232.83,-257.62 1239.43,-246.33 1226.75,-238 1175.27,-204.19 1106.46,-194.39 1051.18,-192.94"/>
<polygon fill="red" stroke="red" points="1051.08,-189.44 1041.02,-192.77 1050.96,-196.44 1051.08,-189.44"/>
<text text-anchor="middle" x="1144.75" y="-241.8" font-family="Times,serif" font-size="14.00">Pop B.3.5/qLDOE.3.4</text>
</g>
<!-- LDOE34_litl&#45;&gt;M34_LDOE34 -->
<g id="edge49" class="edge">
<title>LDOE34_litl&#45;&gt;M34_LDOE34</title>
<path fill="none" stroke="red" d="M1429.16,-295.13C1485.7,-293.29 1558.94,-290.91 1616.43,-289.04"/>
<polygon fill="red" stroke="red" points="1616.73,-292.53 1626.61,-288.71 1616.5,-285.53 1616.73,-292.53"/>
<text text-anchor="middle" x="1530.23" y="-298.8" font-family="Times,serif" font-size="14.00">Pop M.3.4/qLDOE.3.4</text>
</g>
<!-- A45_litx -->
<g id="node26" class="node">
<title>A45_litx</title>
<ellipse fill="none" stroke="black" cx="1339.74" cy="-174" rx="67.68" ry="18"/>
<ellipse fill="none" stroke="black" cx="1339.74" cy="-174" rx="71.69" ry="22"/>
<text text-anchor="middle" x="1339.74" y="-170.3" font-family="Times,serif" font-size="14.00">A.4.5/q_lit_x</text>
</g>
<!-- A45_q0&#45;&gt;A45_litx -->
<g id="edge16" class="edge">
<title>A45_q0&#45;&gt;A45_litx</title>
<path fill="none" stroke="transparent" stroke-dasharray="1,5" d="M1000.96,-118.54C1015.88,-114.51 1031.96,-108.35 1044.75,-99 1056.09,-90.71 1050.3,-79.52 1062.75,-73 1127.31,-39.17 1167.37,-30.72 1226.75,-73 1246.67,-87.19 1228.77,-106.48 1244.75,-125 1254.71,-136.55 1268.07,-145.75 1281.59,-152.93"/>
<polygon fill="transparent" stroke="transparent" points="1280.42,-156.25 1290.93,-157.57 1283.53,-149.98 1280.42,-156.25"/>
<text text-anchor="middle" x="1144.75" y="-76.8" font-family="Times,serif" font-size="14.00" fill="#fffffe">x</text>
</g>
<!-- A45_q0&#45;&gt;A45_litx -->
<g id="edge46" class="edge">
<title>A45_q0&#45;&gt;A45_litx</title>
<path fill="none" stroke="red" d="M1004.42,-122.94C1058.8,-120.5 1149.98,-119.53 1226.75,-134 1247.57,-137.93 1269.71,-145.14 1288.75,-152.36"/>
<polygon fill="red" stroke="red" points="1287.53,-155.64 1298.11,-156.01 1290.07,-149.12 1287.53,-155.64"/>
<text text-anchor="middle" x="1144.75" y="-137.8" font-family="Times,serif" font-size="14.00">x</text>
</g>
<!-- A45_litx&#45;&gt;B35_A45 -->
<g id="edge42" class="edge">
<title>A45_litx&#45;&gt;B35_A45</title>
<path fill="none" stroke="red" d="M1339.74,-151.84C1339.74,-143.96 1339.74,-134.92 1339.74,-126.37"/>
<polygon fill="red" stroke="red" points="1343.24,-126.28 1339.74,-116.28 1336.24,-126.28 1343.24,-126.28"/>
<text text-anchor="middle" x="1329.24" y="-130.3" font-family="Times,serif" font-size="14.00">Pop B.3.5/qA.4.5</text>
</g>
<!-- M34_q0&#45;&gt;LDOE34_q0 -->
<g id="edge47" class="edge">
<title>M34_q0&#45;&gt;LDOE34_q0</title>
<path fill="none" stroke="red" d="M1305.36,-369.51C1248.98,-389.91 1134.09,-420.7 1062.75,-366 1038.28,-347.24 1064.15,-322.96 1044.75,-299 1035.61,-287.72 1022.91,-278.98 1009.98,-272.34"/>
<polygon fill="red" stroke="red" points="1011.11,-269 1000.58,-267.86 1008.1,-275.32 1011.11,-269"/>
<text text-anchor="middle" x="1144.75" y="-400.8" font-family="Times,serif" font-size="14.00">Push M.3.4/qLDOE.3.4</text>
</g>
<!-- M34_q0&#45;&gt;M34_LDOE34 -->
<g id="edge17" class="edge">
<title>M34_q0&#45;&gt;M34_LDOE34</title>
<path fill="none" stroke="black" stroke-dasharray="1,5" d="M1389.27,-350.02C1443,-343.02 1532.04,-330.28 1607.73,-314 1621.76,-310.98 1636.73,-307.2 1650.77,-303.41"/>
<polygon fill="black" stroke="black" points="1652.08,-306.67 1660.79,-300.65 1650.22,-299.93 1652.08,-306.67"/>
</g>
<!-- M34_LDOE34&#45;&gt;LDOE34_M34 -->
<g id="edge44" class="edge">
<title>M34_LDOE34&#45;&gt;LDOE34_M34</title>
<path fill="none" stroke="red" d="M1640.94,-275.73C1629.84,-274.12 1618.47,-272.49 1607.73,-271 1549.89,-262.96 1484.92,-254.43 1433.55,-247.81"/>
<polygon fill="red" stroke="red" points="1433.83,-244.32 1423.47,-246.51 1432.94,-251.26 1433.83,-244.32"/>
<text text-anchor="middle" x="1530.23" y="-274.8" font-family="Times,serif" font-size="14.00">Pop LDOE.3.4/qM.3.4</text>
</g>
</g>
</svg>
