<?xml version="1.0" encoding="UTF-8" standalone="no"?>
<!DOCTYPE svg PUBLIC "-//W3C//DTD SVG 1.1//EN"
 "http://www.w3.org/Graphics/SVG/1.1/DTD/svg11.dtd">
<!-- Generated by graphviz version 2.43.0 (0)
 -->
<!-- Title: ldoe_lr0 Pages: 1 -->
<svg width="479pt" height="552pt"
 viewBox="0.00 0.00 478.69 552.34" xmlns="http://www.w3.org/2000/svg" xmlns:xlink="http://www.w3.org/1999/xlink">
<g id="graph0" class="graph" transform="scale(1 1) rotate(0) translate(4 548.34)">
<title>ldoe_lr0</title>
<polygon fill="white" stroke="transparent" points="-4,4 -4,-548.34 474.69,-548.34 474.69,4 -4,4"/>
<!-- G05_q0 -->
<g id="node1" class="node">
<title>G05_q0</title>
<ellipse fill="none" stroke="black" cx="202.84" cy="-506.86" rx="111.03" ry="37.45"/>
<text text-anchor="middle" x="202.84" y="-518.16" font-family="Times,serif" font-size="14.00">G·0·5: ● S·0·5.</text>
<text text-anchor="middle" x="202.84" y="-503.16" font-family="Times,serif" font-size="14.00">...</text>
<text text-anchor="middle" x="202.84" y="-488.16" font-family="Times,serif" font-size="14.00">LDOE·1·2: ● M·1·2.</text>
</g>
<!-- M12_q00 -->
<g id="node2" class="node">
<title>M12_q00</title>
<ellipse fill="none" stroke="black" cx="202.84" cy="-276.17" rx="143.59" ry="37.45"/>
<text text-anchor="middle" x="202.84" y="-287.47" font-family="Times,serif" font-size="14.00">M·1·2: &#160;● &#39;m&#39;.</text>
<text text-anchor="middle" x="202.84" y="-272.47" font-family="Times,serif" font-size="14.00">...</text>
<text text-anchor="middle" x="202.84" y="-257.47" font-family="Times,serif" font-size="14.00">B·3·5: &#160;● LDOE·3·4, A·4·5.</text>
</g>
<!-- G05_q0&#45;&gt;M12_q00 -->
<g id="edge1" class="edge">
<title>G05_q0&#45;&gt;M12_q00</title>
<path fill="none" stroke="black" d="M199.26,-469.3C197.9,-453.64 196.51,-435.13 195.84,-418.39 194.89,-394.52 194.89,-388.51 195.84,-364.65 196.37,-351.43 197.35,-337.12 198.4,-323.98"/>
<polygon fill="black" stroke="black" points="201.92,-323.99 199.26,-313.73 194.94,-323.41 201.92,-323.99"/>
<text text-anchor="middle" x="200.84" y="-387.82" font-family="Times,serif" font-size="14.00" fill="red">0</text>
</g>
<!-- M12_q01 -->
<g id="node3" class="node">
<title>M12_q01</title>
<ellipse fill="none" stroke="black" cx="328.84" cy="-391.52" rx="113.69" ry="26.74"/>
<text text-anchor="middle" x="328.84" y="-395.32" font-family="Times,serif" font-size="14.00">M·1·2: &#160;● LDOE·1·2.</text>
<text text-anchor="middle" x="328.84" y="-380.32" font-family="Times,serif" font-size="14.00">LDOE·1·2: ● M·1·2.</text>
</g>
<!-- G05_q0&#45;&gt;M12_q01 -->
<g id="edge2" class="edge">
<title>G05_q0&#45;&gt;M12_q01</title>
<path fill="none" stroke="black" d="M240.99,-471.55C257.55,-456.65 276.83,-439.31 293.11,-424.66"/>
<polygon fill="black" stroke="black" points="295.74,-427.01 300.83,-417.72 291.06,-421.8 295.74,-427.01"/>
<text text-anchor="middle" x="281.84" y="-440.19" font-family="Times,serif" font-size="14.00" fill="red">1</text>
</g>
<!-- LDOE34_q00 -->
<g id="node4" class="node">
<title>LDOE34_q00</title>
<ellipse fill="none" stroke="black" cx="113.84" cy="-160.82" rx="113.69" ry="26.74"/>
<text text-anchor="middle" x="113.84" y="-164.62" font-family="Times,serif" font-size="14.00">LDOE·3·4: ● M·3·4.</text>
<text text-anchor="middle" x="113.84" y="-149.62" font-family="Times,serif" font-size="14.00">M·3·4: &#160;● LDOE·3·4.</text>
</g>
<!-- M12_q00&#45;&gt;LDOE34_q00 -->
<g id="edge5" class="edge">
<title>M12_q00&#45;&gt;LDOE34_q00</title>
<path fill="none" stroke="black" d="M174.68,-239.31C163.72,-225.34 151.22,-209.42 140.41,-195.66"/>
<polygon fill="black" stroke="black" points="142.86,-193.11 133.93,-187.4 137.35,-197.43 142.86,-193.11"/>
<text text-anchor="middle" x="163.84" y="-209.49" font-family="Times,serif" font-size="14.00" fill="red">0</text>
</g>
<!-- LDOE34_q01 -->
<g id="node5" class="node">
<title>LDOE34_q01</title>
<ellipse fill="none" stroke="black" cx="202.84" cy="-41.48" rx="90.52" ry="37.46"/>
<ellipse fill="none" stroke="black" cx="202.84" cy="-41.48" rx="94.52" ry="41.45"/>
<text text-anchor="middle" x="202.84" y="-52.78" font-family="Times,serif" font-size="14.00">LDOE·3·4: ● &#39;l&#39;.</text>
<text text-anchor="middle" x="202.84" y="-37.78" font-family="Times,serif" font-size="14.00">...</text>
<text text-anchor="middle" x="202.84" y="-22.78" font-family="Times,serif" font-size="14.00">G·0·5: S·0·5 ● .</text>
</g>
<!-- M12_q00&#45;&gt;LDOE34_q01 -->
<g id="edge6" class="edge">
<title>M12_q00&#45;&gt;LDOE34_q01</title>
<path fill="none" stroke="black" d="M235.59,-239.63C247.2,-224.72 258.86,-206.49 264.84,-187.69 272.09,-164.94 271.85,-156.79 264.84,-133.95 260,-118.16 251.39,-102.64 242.11,-88.99"/>
<polygon fill="black" stroke="black" points="244.91,-86.89 236.27,-80.75 239.2,-90.94 244.91,-86.89"/>
<text text-anchor="middle" x="275.84" y="-157.12" font-family="Times,serif" font-size="14.00" fill="red">1</text>
</g>
<!-- M12_q01&#45;&gt;M12_q00 -->
<g id="edge3" class="edge">
<title>M12_q01&#45;&gt;M12_q00</title>
<path fill="none" stroke="black" d="M300.88,-365.36C285.92,-351.9 267.09,-334.96 249.94,-319.54"/>
<polygon fill="black" stroke="black" points="251.97,-316.66 242.2,-312.57 247.29,-321.86 251.97,-316.66"/>
<text text-anchor="middle" x="281.84" y="-335.45" font-family="Times,serif" font-size="14.00" fill="red">0</text>
</g>
<!-- M12_q01&#45;&gt;M12_q01 -->
<g id="edge4" class="edge">
<title>M12_q01&#45;&gt;M12_q01</title>
<path fill="none" stroke="black" d="M436.7,-400.14C451.11,-398.68 460.69,-395.81 460.69,-391.52 460.69,-388.33 455.41,-385.93 446.8,-384.3"/>
<polygon fill="black" stroke="black" points="447.09,-380.81 436.7,-382.89 446.12,-387.74 447.09,-380.81"/>
<text text-anchor="middle" x="465.69" y="-387.82" font-family="Times,serif" font-size="14.00" fill="red">1</text>
</g>
<!-- LDOE34_q00&#45;&gt;LDOE34_q00 -->
<g id="edge7" class="edge">
<title>LDOE34_q00&#45;&gt;LDOE34_q00</title>
<path fill="none" stroke="black" d="M221.7,-169.45C236.11,-167.99 245.69,-165.11 245.69,-160.82 245.69,-157.64 240.41,-155.23 231.8,-153.61"/>
<polygon fill="black" stroke="black" points="232.09,-150.12 221.7,-152.2 231.12,-157.05 232.09,-150.12"/>
<text text-anchor="middle" x="250.69" y="-157.12" font-family="Times,serif" font-size="14.00" fill="red">0</text>
</g>
<!-- LDOE34_q00&#45;&gt;LDOE34_q01 -->
<g id="edge8" class="edge">
<title>LDOE34_q00&#45;&gt;LDOE34_q01</title>
<path fill="none" stroke="black" d="M133.38,-134.07C143.31,-120.98 155.69,-104.65 167.24,-89.42"/>
<polygon fill="black" stroke="black" points="170.29,-91.19 173.55,-81.1 164.72,-86.96 170.29,-91.19"/>
<text text-anchor="middle" x="163.84" y="-104.75" font-family="Times,serif" font-size="14.00" fill="red">1</text>
</g>
</g>
</svg>
